<?xml version="1.0" encoding="UTF-8"?>
<svg xmlns="http://www.w3.org/2000/svg" xmlns:xlink="http://www.w3.org/1999/xlink" version="1.2" >
<font id="Graphik Bold">
<font-face  font-family="Graphik" units-per-em="1000" ascent="825" descent="-175" font-style="normal" font-weight="700" font-stretch="normal" cap-height="715" x-height="523" underline-position="-75" underline-thickness="50" />
<missing-glyph  horiz-adv-x="519" d="" />
<glyph glyph-name="NULL" d="" />
<glyph glyph-name="CR" unicode="&#xd;" horiz-adv-x="250" d="" />
<glyph glyph-name="space" unicode="&#x20;" horiz-adv-x="197" d="" />
<glyph glyph-name="exclam" unicode="&#x21;" horiz-adv-x="334" d="M167 -11 C226 -11 274 33 274 88 C274 143 226 188 167 188 C108 188 61 143 61 88 C61 33 108 -11 167 -11 L167 -11 Z M93 235 L241 235 L268 715 L66 715 L93 235 Z " />
<glyph glyph-name="quotedbl" unicode="&#x22;" horiz-adv-x="462" d="M61 440 L188 440 L209 715 L41 715 L61 440 Z M274 440 L401 440 L422 715 L253 715 L274 440 Z " />
<glyph glyph-name="numbersign" unicode="&#x23;" horiz-adv-x="576" d="M270 99 L391 99 L412 241 L512 241 L512 382 L433 382 L444 458 L536 458 L536 592 L464 592 L483 715 L362 715 L343 592 L281 592 L299 715 L178 715 L160 592 L63 592 L63 458 L140 458 L129 382 L39 382 L39 241 L108 241 L87 99 L208 99 L229 241 L291 241 L270 99 Z M261 458 L323 458 L312 382 L250 382 L261 458 Z " />
<glyph glyph-name="dollar" unicode="&#x24;" horiz-adv-x="647" d="M288 -135 L366 -135 L366 -10 C540 1 619 103 619 225 C619 370 519 422 366 444 L366 582 C407 571 422 545 428 507 L609 507 C597 644 511 711 366 723 L366 813 L288 813 L288 724 C135 713 40 626 40 505 C40 366 114 303 288 278 L288 132 C233 144 214 180 209 226 L24 226 C31 94 115 2 288 -10 L288 -135 Z M433 203 C433 167 410 141 366 132 L366 265 C419 253 433 236 433 203 L433 203 Z M220 520 C220 552 243 576 288 584 L288 456 C234 467 220 485 220 520 L220 520 Z " />
<glyph glyph-name="percent" unicode="&#x25;" horiz-adv-x="827" d="M215 468 C178 468 156 496 156 546 C156 593 178 621 215 621 C252 621 272 592 272 545 C272 498 252 468 215 468 L215 468 Z M214 364 C330 364 404 444 404 548 C404 650 322 723 215 723 C106 723 25 646 25 545 C25 442 96 364 214 364 L214 364 Z M118 0 L216 0 L712 715 L614 715 L118 0 Z M613 93 C577 93 555 120 555 170 C555 217 577 245 613 245 C651 245 671 216 671 170 C671 122 651 93 613 93 L613 93 Z M612 -12 C728 -12 802 68 802 172 C802 275 721 347 613 347 C505 347 423 271 423 169 C423 66 494 -12 612 -12 L612 -12 Z " />
<glyph glyph-name="ampersand" unicode="&#x26;" horiz-adv-x="762" d="M747 372 L591 372 L539 270 L449 380 C546 422 592 479 592 557 C592 667 489 724 375 724 C249 724 145 659 145 537 C145 503 158 456 189 412 C88 364 32 296 32 204 C32 68 131 -12 283 -12 C376 -12 431 16 476 52 L518 0 L751 0 L632 146 L747 372 Z M314 137 C254 137 223 174 223 226 C223 265 244 287 271 303 L384 167 C365 147 341 137 314 137 L314 137 Z M321 535 C321 574 346 597 380 597 C412 597 433 574 433 542 C433 505 410 478 362 455 C337 484 321 509 321 535 L321 535 Z " />
<glyph glyph-name="quotesingle" unicode="&#x27;" horiz-adv-x="256" d="M61 440 L195 440 L216 715 L41 715 L61 440 Z " />
<glyph glyph-name="parenleft" unicode="&#x28;" horiz-adv-x="356" d="M204 -148 L344 -148 C278 -46 209 104 209 313 C209 523 278 673 344 775 L204 775 C127 682 38 537 38 313 C38 91 127 -55 204 -148 L204 -148 Z " />
<glyph glyph-name="parenright" unicode="&#x29;" horiz-adv-x="356" d="M11 -147 L151 -147 C229 -54 318 92 318 315 C318 538 229 683 151 776 L11 776 C78 674 146 524 146 315 C146 105 78 -45 11 -147 L11 -147 Z " />
<glyph glyph-name="asterisk" unicode="&#x2a;" horiz-adv-x="440" d="M165 370 L220 485 L276 370 L383 447 L294 537 L412 550 L377 673 L268 620 L292 743 L149 743 L173 620 L63 673 L29 550 L146 537 L57 447 L165 370 Z " />
<glyph glyph-name="plus" unicode="&#x2b;" horiz-adv-x="570" d="M213 83 L357 83 L357 275 L533 275 L533 405 L357 405 L357 597 L213 597 L213 405 L37 405 L37 275 L213 275 L213 83 Z " />
<glyph glyph-name="comma" unicode="&#x2c;" horiz-adv-x="306" d="M122 -122 L266 123 L100 182 L16 -81 L122 -122 Z " />
<glyph glyph-name="hyphen" unicode="&#x2d;" horiz-adv-x="382" d="M51 218 L331 218 L331 353 L51 353 L51 218 Z " />
<glyph glyph-name="period" unicode="&#x2e;" horiz-adv-x="299" d="M148 -11 C208 -11 253 34 253 90 C253 146 208 191 148 191 C89 191 46 146 46 90 C46 34 89 -11 148 -11 L148 -11 Z " />
<glyph glyph-name="slash" unicode="&#x2f;" horiz-adv-x="434" d="M-24 -148 L118 -148 L436 776 L293 776 L-24 -148 Z " />
<glyph glyph-name="zero" unicode="0" horiz-adv-x="732" d="M368 147 C280 147 241 210 241 343 L241 373 C241 505 280 570 366 570 C453 570 491 504 491 373 L491 344 C491 212 456 147 368 147 L368 147 Z M362 -12 C566 -12 696 121 696 348 L696 376 C696 608 554 725 366 725 C177 725 36 598 36 372 L36 342 C36 117 162 -12 362 -12 L362 -12 Z " />
<glyph glyph-name="one" unicode="1" horiz-adv-x="450" d="M168 0 L373 0 L373 715 L196 715 L32 600 L32 429 L168 513 L168 0 Z " />
<glyph glyph-name="two" unicode="2" horiz-adv-x="615" d="M8 0 L583 0 L583 153 L343 153 L443 250 C523 327 578 401 578 499 C578 631 485 725 310 725 C137 725 29 634 22 455 L208 455 C217 540 249 571 300 571 C351 571 376 539 376 491 C376 431 329 370 258 294 L8 29 L8 0 Z " />
<glyph glyph-name="three" unicode="3" horiz-adv-x="652" d="M326 -12 C515 -12 616 77 616 213 C616 300 559 358 477 375 C552 397 598 449 598 529 C598 648 497 725 329 725 C151 725 57 628 48 487 L229 487 C237 545 269 578 324 578 C378 578 406 550 406 507 C406 457 375 428 311 428 L258 428 L258 301 L315 301 C379 301 409 273 409 217 C409 166 378 136 315 136 C244 136 216 176 210 235 L28 235 C34 80 127 -12 326 -12 L326 -12 Z " />
<glyph glyph-name="four" unicode="4" horiz-adv-x="678" d="M366 0 L563 0 L563 137 L655 137 L655 278 L563 278 L563 715 L316 715 L18 214 L18 137 L366 137 L366 0 Z M211 278 L371 561 L371 278 L211 278 Z " />
<glyph glyph-name="five" unicode="5" horiz-adv-x="631" d="M307 -12 C488 -12 597 88 597 240 C597 395 511 483 380 483 C291 483 240 446 213 407 L217 565 L551 565 L551 715 L69 715 L54 294 L176 294 C200 322 236 345 294 345 C356 345 391 307 391 243 C391 186 364 142 305 142 C239 142 219 175 212 225 L26 225 C31 91 117 -12 307 -12 L307 -12 Z " />
<glyph glyph-name="six" unicode="6" horiz-adv-x="674" d="M351 -12 C533 -12 643 88 643 239 C643 389 536 468 406 468 C318 468 271 434 239 385 C243 506 286 574 364 574 C415 574 433 549 440 514 L628 514 C613 654 518 725 357 725 C175 725 36 590 36 357 L36 338 C36 134 123 -12 351 -12 L351 -12 Z M349 133 C290 133 252 176 252 239 C252 296 290 340 349 340 C408 340 444 297 444 237 C444 176 406 133 349 133 L349 133 Z " />
<glyph glyph-name="seven" unicode="7" horiz-adv-x="576" d="M112 0 L320 0 L568 694 L568 715 L24 715 L24 549 L312 549 L112 0 Z " />
<glyph glyph-name="eight" unicode="8" horiz-adv-x="657" d="M328 -12 C509 -12 627 69 627 207 C627 288 584 349 499 378 C560 406 600 453 600 526 C600 653 482 725 330 725 C183 725 60 653 60 525 C60 453 98 405 160 377 C75 347 30 284 30 202 C30 63 148 -12 328 -12 L328 -12 Z M329 132 C273 132 232 166 232 223 C232 281 274 314 330 314 C387 314 426 280 426 223 C426 166 386 132 329 132 L329 132 Z M331 430 C285 430 246 460 246 509 C246 557 284 587 330 587 C377 587 415 557 415 509 C415 460 378 430 331 430 L331 430 Z " />
<glyph glyph-name="nine" unicode="9" horiz-adv-x="675" d="M322 -11 C526 -11 638 120 638 352 L638 376 C638 583 538 726 325 726 C143 726 31 624 31 474 C31 322 136 243 273 243 C361 243 404 278 435 327 C432 205 397 141 312 141 C257 141 235 166 228 202 L40 202 C55 65 153 -11 322 -11 L322 -11 Z M322 375 C263 375 227 418 227 477 C227 538 265 582 322 582 C382 582 420 538 420 475 C420 418 381 375 322 375 L322 375 Z " />
<glyph glyph-name="colon" unicode="&#x3a;" horiz-adv-x="305" d="M151 -11 C211 -11 256 34 256 90 C256 146 211 191 151 191 C93 191 49 146 49 90 C49 34 93 -11 151 -11 L151 -11 Z M151 275 C211 275 256 319 256 376 C256 432 211 477 151 477 C93 477 49 432 49 376 C49 319 93 275 151 275 L151 275 Z " />
<glyph glyph-name="semicolon" unicode="&#x3b;" horiz-adv-x="321" d="M116 -122 L259 123 L93 182 L10 -81 L116 -122 Z M174 275 C234 275 279 319 279 376 C279 432 234 477 174 477 C115 477 72 432 72 376 C72 319 115 275 174 275 L174 275 Z " />
<glyph glyph-name="less" unicode="&#x3c;" horiz-adv-x="513" d="M463 59 L463 217 L273 323 L463 423 L463 585 L42 339 L42 305 L463 59 Z " />
<glyph glyph-name="equal" unicode="&#x3d;" horiz-adv-x="557" d="M39 167 L518 167 L518 289 L39 289 L39 167 Z M39 363 L518 363 L518 486 L39 486 L39 363 Z " />
<glyph glyph-name="greater" unicode="&#x3e;" horiz-adv-x="513" d="M49 60 L471 306 L471 340 L49 586 L49 428 L240 322 L49 223 L49 60 Z " />
<glyph glyph-name="question" unicode="&#x3f;" horiz-adv-x="556" d="M169 235 L338 235 L338 250 C347 299 404 338 453 387 C493 426 526 471 526 537 C526 656 439 725 285 725 C131 725 23 643 18 492 L192 492 C199 547 228 580 271 580 C313 580 332 559 332 520 C332 485 301 455 267 422 C221 378 169 330 169 254 L169 235 Z M254 -11 C312 -11 360 33 360 88 C360 143 312 188 254 188 C194 188 146 143 146 88 C146 33 194 -11 254 -11 L254 -11 Z " />
<glyph glyph-name="at" unicode="&#x40;" horiz-adv-x="921" d="M460 -158 C614 -158 746 -96 812 0 L721 0 C670 -48 580 -89 464 -89 C231 -89 113 60 113 250 C113 477 275 621 481 621 C683 621 812 503 812 329 C812 182 758 124 703 124 C667 124 654 148 659 190 L693 463 L546 463 L539 411 C524 444 492 471 430 471 C320 471 232 377 232 236 C232 121 297 50 395 50 C459 50 503 81 529 134 C543 81 589 52 676 52 C783 52 892 128 892 327 C892 546 716 691 479 691 C243 691 28 516 28 251 C28 25 190 -158 460 -158 L460 -158 Z M443 168 C403 168 382 200 382 242 C382 309 414 355 459 355 C501 355 523 328 523 284 C523 215 487 168 443 168 L443 168 Z " />
<glyph glyph-name="A" unicode="A" horiz-adv-x="747" d="M13 0 L204 0 L242 133 L479 133 L517 0 L734 0 L507 715 L242 715 L13 0 Z M361 549 L439 274 L282 274 L361 549 Z " />
<glyph glyph-name="B" unicode="B" horiz-adv-x="679" d="M69 0 L391 0 C568 0 651 71 651 199 L651 203 C651 302 596 355 508 370 C588 391 629 444 629 524 L629 528 C629 639 557 715 388 715 L69 715 L69 0 Z M269 137 L269 306 L348 306 C420 306 449 278 449 224 L449 220 C449 167 419 137 354 137 L269 137 Z M269 431 L269 579 L347 579 C409 579 435 557 435 508 L435 504 C435 453 411 431 347 431 L269 431 Z " />
<glyph glyph-name="C" unicode="C" horiz-adv-x="759" d="M405 -12 C590 -12 724 84 738 269 L534 269 C524 190 473 152 401 152 C303 152 248 225 248 354 L248 362 C248 492 306 564 398 564 C470 564 510 524 518 451 L729 451 C712 640 583 726 397 726 C188 726 32 581 32 361 L32 353 C32 134 155 -12 405 -12 L405 -12 Z " />
<glyph glyph-name="D" unicode="D" horiz-adv-x="743" d="M275 158 L275 557 L320 557 C444 557 498 499 498 363 L498 355 C498 222 444 158 322 158 L275 158 Z M69 0 L328 0 C580 0 712 135 712 358 L712 366 C712 588 583 715 329 715 L69 715 L69 0 Z " />
<glyph glyph-name="E" unicode="E" horiz-adv-x="612" d="M69 0 L579 0 L579 158 L273 158 L273 288 L504 288 L504 434 L273 434 L273 557 L563 557 L563 715 L69 715 L69 0 Z " />
<glyph glyph-name="F" unicode="F" horiz-adv-x="579" d="M69 0 L275 0 L275 253 L496 253 L496 404 L275 404 L275 556 L552 556 L552 715 L69 715 L69 0 Z " />
<glyph glyph-name="G" unicode="G" horiz-adv-x="787" d="M406 -12 C637 -12 756 125 756 307 L756 395 L420 395 L420 252 L554 252 C550 195 512 144 412 144 C288 144 245 234 245 350 L245 358 C245 487 306 565 407 565 C483 565 526 530 536 463 L739 463 C725 649 575 726 406 726 C191 726 31 579 31 361 L31 353 C31 139 163 -12 406 -12 L406 -12 Z " />
<glyph glyph-name="H" unicode="H" horiz-adv-x="784" d="M69 0 L275 0 L275 282 L510 282 L510 0 L715 0 L715 715 L510 715 L510 442 L275 442 L275 715 L69 715 L69 0 Z " />
<glyph glyph-name="I" unicode="I" horiz-adv-x="352" d="M73 0 L280 0 L280 715 L73 715 L73 0 Z " />
<glyph glyph-name="J" unicode="J" horiz-adv-x="478" d="M163 -9 C331 -9 419 79 419 251 L419 715 L213 715 L213 253 C213 179 176 154 120 154 C79 154 57 160 33 168 L33 15 C62 1 96 -9 163 -9 L163 -9 Z " />
<glyph glyph-name="K" unicode="K" horiz-adv-x="726" d="M69 0 L275 0 L275 299 L481 0 L718 0 L442 383 L704 715 L490 715 L275 432 L275 715 L69 715 L69 0 Z " />
<glyph glyph-name="L" unicode="L" horiz-adv-x="575" d="M69 0 L545 0 L545 159 L275 159 L275 715 L69 715 L69 0 Z " />
<glyph glyph-name="M" unicode="M" horiz-adv-x="942" d="M69 0 L252 0 L252 445 L425 0 L493 0 L668 445 L668 0 L872 0 L872 715 L610 715 L473 334 L336 715 L69 715 L69 0 Z " />
<glyph glyph-name="N" unicode="N" horiz-adv-x="777" d="M69 0 L249 0 L249 449 L510 0 L708 0 L708 715 L529 715 L529 312 L300 715 L69 715 L69 0 Z " />
<glyph glyph-name="O" unicode="O" horiz-adv-x="819" d="M410 149 C311 149 245 224 245 354 L245 362 C245 492 308 565 409 565 C510 565 574 490 574 363 L574 355 C574 227 511 149 410 149 L410 149 Z M406 -12 C637 -12 788 138 788 358 L788 366 C788 588 627 725 409 725 C195 725 31 579 31 361 L31 353 C31 138 175 -12 406 -12 L406 -12 Z " />
<glyph glyph-name="P" unicode="P" horiz-adv-x="652" d="M69 0 L273 0 L273 241 L350 241 C527 241 628 322 628 472 L628 476 C628 628 537 715 341 715 L69 715 L69 0 Z M273 381 L273 561 L333 561 C397 561 433 536 433 475 L433 471 C433 412 398 381 332 381 L273 381 Z " />
<glyph glyph-name="Q" unicode="Q" horiz-adv-x="819" d="M613 -120 L727 -6 L655 66 C739 131 788 233 788 358 L788 366 C788 588 627 725 409 725 C195 725 31 579 31 361 L31 353 C31 138 175 -12 406 -12 C438 -12 468 -9 497 -3 L613 -120 Z M245 354 L245 362 C245 492 308 565 409 565 C510 565 574 490 574 363 L574 355 C574 284 557 231 527 195 L463 260 L348 154 C284 179 245 246 245 354 L245 354 Z " />
<glyph glyph-name="R" unicode="R" horiz-adv-x="697" d="M69 0 L273 0 L273 256 L321 256 L466 0 L682 0 L511 296 C586 325 640 382 640 484 L640 488 C640 639 536 715 349 715 L69 715 L69 0 Z M273 389 L273 561 L340 561 C406 561 442 538 442 480 L442 476 C442 418 408 389 339 389 L273 389 Z " />
<glyph glyph-name="S" unicode="S" horiz-adv-x="647" d="M331 -12 C515 -12 619 95 619 226 C619 381 526 428 345 448 C256 460 234 478 234 518 C234 554 262 579 317 579 C373 579 402 553 409 502 L599 502 C586 653 489 725 317 725 C146 725 40 631 40 502 C40 358 108 298 310 274 C396 261 423 249 423 205 C423 163 390 134 331 134 C246 134 223 176 218 227 L23 227 C29 72 131 -12 331 -12 L331 -12 Z " />
<glyph glyph-name="T" unicode="T" horiz-adv-x="618" d="M206 0 L412 0 L412 557 L597 557 L597 715 L21 715 L21 557 L206 557 L206 0 Z " />
<glyph glyph-name="U" unicode="U" horiz-adv-x="764" d="M381 -12 C578 -12 700 85 700 293 L700 715 L493 715 L493 302 C493 195 466 149 381 149 C294 149 269 198 269 299 L269 715 L64 715 L64 290 C64 90 179 -12 381 -12 L381 -12 Z " />
<glyph glyph-name="V" unicode="V" horiz-adv-x="728" d="M249 0 L482 0 L716 715 L524 715 L378 213 L233 715 L12 715 L249 0 Z " />
<glyph glyph-name="W" unicode="W" horiz-adv-x="996" d="M180 0 L380 0 L491 454 L601 0 L815 0 L982 715 L792 715 L695 265 L591 715 L409 715 L313 269 L221 715 L14 715 L180 0 Z " />
<glyph glyph-name="X" unicode="X" horiz-adv-x="755" d="M22 0 L233 0 L366 246 L499 0 L733 0 L512 375 L704 715 L494 715 L384 502 L272 715 L39 715 L243 368 L22 0 Z " />
<glyph glyph-name="Y" unicode="Y" horiz-adv-x="677" d="M241 0 L447 0 L447 306 L669 715 L473 715 L352 474 L231 715 L8 715 L241 306 L241 0 Z " />
<glyph glyph-name="Z" unicode="Z" horiz-adv-x="627" d="M13 0 L593 0 L593 158 L308 158 L608 693 L608 715 L52 715 L52 558 L317 558 L13 23 L13 0 Z " />
<glyph glyph-name="bracketleft" unicode="&#x5b;" horiz-adv-x="409" d="M66 -148 L371 -148 L371 -17 L246 -17 L246 645 L371 645 L371 776 L66 776 L66 -148 Z " />
<glyph glyph-name="backslash" unicode="&#x5c;" horiz-adv-x="434" d="M316 -148 L458 -148 L141 776 L-2 776 L316 -148 Z " />
<glyph glyph-name="bracketright" unicode="&#x5d;" horiz-adv-x="409" d="M39 -148 L343 -148 L343 776 L39 776 L39 645 L163 645 L163 -17 L39 -17 L39 -148 Z " />
<glyph glyph-name="asciicircum" unicode="&#x5e;" horiz-adv-x="531" d="M23 393 L173 393 L264 569 L355 393 L508 393 L344 715 L187 715 L23 393 Z " />
<glyph glyph-name="underscore" unicode="&#x5f;" horiz-adv-x="434" d="M-1 -161 L435 -161 L435 -75 L-1 -75 L-1 -161 Z " />
<glyph glyph-name="grave" unicode="&#x60;" horiz-adv-x="400" d="M143 583 L271 583 L218 749 L38 749 L143 583 Z " />
<glyph glyph-name="a" unicode="a" horiz-adv-x="578" d="M200 -12 C284 -12 330 23 355 61 L355 0 L529 0 L529 339 C529 478 437 537 293 537 C150 537 51 475 43 349 L211 349 C215 382 233 411 282 411 C339 411 351 378 351 328 L351 316 L301 316 C127 316 23 268 23 145 C23 34 106 -12 200 -12 L200 -12 Z M262 109 C220 109 200 128 200 158 C200 201 232 215 304 215 L351 215 L351 183 C351 138 313 109 262 109 L262 109 Z " />
<glyph glyph-name="b" unicode="b" horiz-adv-x="643" d="M394 -12 C517 -12 616 78 616 258 L616 266 C616 445 517 537 395 537 C316 537 262 495 232 445 L232 753 L53 753 L53 0 L232 0 L232 81 C258 25 316 -12 394 -12 L394 -12 Z M331 125 C266 125 227 170 227 259 L227 267 C227 355 266 402 331 402 C394 402 434 358 434 266 L434 258 C434 172 398 125 331 125 L331 125 Z " />
<glyph glyph-name="c" unicode="c" horiz-adv-x="583" d="M300 -12 C469 -12 558 74 563 206 L402 206 C396 149 361 119 311 119 C243 119 208 166 208 257 L208 265 C208 353 245 398 308 398 C360 398 384 371 392 322 L560 322 C550 481 432 537 304 537 C150 537 25 437 25 263 L25 255 C25 79 144 -12 300 -12 L300 -12 Z " />
<glyph glyph-name="d" unicode="d" horiz-adv-x="642" d="M247 -12 C326 -12 384 31 410 85 L410 0 L589 0 L589 753 L410 753 L410 449 C380 502 331 537 249 537 C125 537 27 442 27 264 L27 256 C27 75 126 -12 247 -12 L247 -12 Z M310 125 C248 125 209 170 209 258 L209 266 C209 357 245 402 312 402 C378 402 415 355 415 267 L415 259 C415 170 375 125 310 125 L310 125 Z " />
<glyph glyph-name="e" unicode="e" horiz-adv-x="598" d="M309 -12 C467 -12 558 55 574 173 L406 173 C399 138 374 111 315 111 C251 111 211 151 206 220 L574 220 L574 267 C574 455 451 537 308 537 C150 537 25 431 25 263 L25 255 C25 84 145 -12 309 -12 L309 -12 Z M208 321 C217 384 254 419 308 419 C366 419 397 384 400 321 L208 321 Z " />
<glyph glyph-name="f" unicode="f" horiz-adv-x="386" d="M80 0 L258 0 L258 401 L364 401 L364 523 L258 523 L258 569 C258 603 276 626 318 626 C338 626 354 623 367 619 L367 750 C343 756 318 761 285 761 C161 761 80 699 80 569 L80 523 L14 523 L14 401 L80 401 L80 0 Z " />
<glyph glyph-name="g" unicode="g" horiz-adv-x="641" d="M298 -194 C485 -194 588 -112 588 44 L588 523 L409 523 L409 449 C379 502 330 537 247 537 C124 537 25 439 25 285 L25 277 C25 116 125 26 247 26 C325 26 382 72 409 122 L409 42 C409 -23 377 -68 298 -68 C233 -68 210 -38 202 0 L24 0 C38 -119 120 -194 298 -194 L298 -194 Z M310 158 C246 158 208 204 208 276 L208 284 C208 356 244 403 311 403 C377 403 414 357 414 285 L414 278 C414 204 374 158 310 158 L310 158 Z " />
<glyph glyph-name="h" unicode="h" horiz-adv-x="624" d="M53 0 L232 0 L232 293 C232 360 268 392 321 392 C373 392 396 363 396 304 L396 0 L575 0 L575 340 C575 474 505 537 404 537 C317 537 260 493 232 439 L232 753 L53 753 L53 0 Z " />
<glyph glyph-name="i" unicode="i" horiz-adv-x="295" d="M58 0 L237 0 L237 523 L58 523 L58 0 Z M147 573 C203 573 246 612 246 665 C246 718 203 758 147 758 C91 758 49 718 49 665 C49 612 91 573 147 573 L147 573 Z " />
<glyph glyph-name="j" unicode="j" horiz-adv-x="295" d="M-6 -184 C183 -184 236 -109 236 4 L236 523 L58 523 L58 8 C58 -33 38 -51 -6 -54 L-6 -184 Z M147 573 C203 573 246 612 246 665 C246 718 203 758 147 758 C91 758 49 718 49 665 C49 612 91 573 147 573 L147 573 Z " />
<glyph glyph-name="k" unicode="k" horiz-adv-x="577" d="M53 0 L232 0 L232 229 L373 0 L573 0 L388 288 L559 523 L373 523 L232 316 L232 753 L53 753 L53 0 Z " />
<glyph glyph-name="l" unicode="l" horiz-adv-x="294" d="M58 0 L236 0 L236 753 L58 753 L58 0 Z " />
<glyph glyph-name="m" unicode="m" horiz-adv-x="931" d="M53 0 L232 0 L232 303 C232 360 264 391 312 391 C353 391 379 365 379 312 L379 0 L556 0 L556 303 C556 360 588 391 636 391 C677 391 703 365 703 312 L703 0 L882 0 L882 342 C882 473 810 537 711 537 C645 537 583 511 538 450 C513 507 465 537 396 537 C315 537 260 493 232 443 L232 523 L53 523 L53 0 Z " />
<glyph glyph-name="n" unicode="n" horiz-adv-x="624" d="M53 0 L232 0 L232 293 C232 360 268 392 321 392 C373 392 396 363 396 304 L396 0 L575 0 L575 340 C575 474 505 537 404 537 C317 537 260 493 232 439 L232 523 L53 523 L53 0 Z " />
<glyph glyph-name="o" unicode="o" horiz-adv-x="622" d="M312 121 C243 121 208 170 208 260 L208 268 C208 356 245 403 312 403 C380 403 415 354 415 266 L415 258 C415 171 379 121 312 121 L312 121 Z M311 -12 C472 -12 597 90 597 260 L597 268 C597 434 473 537 312 537 C150 537 25 431 25 263 L25 255 C25 86 150 -12 311 -12 L311 -12 Z " />
<glyph glyph-name="p" unicode="p" horiz-adv-x="643" d="M53 -175 L232 -175 L232 77 C258 25 315 -12 394 -12 C517 -12 616 78 616 258 L616 266 C616 445 517 537 395 537 C316 537 262 495 232 445 L232 523 L53 523 L53 -175 Z M331 125 C266 125 227 170 227 259 L227 267 C227 355 266 402 331 402 C394 402 434 358 434 266 L434 258 C434 172 398 125 331 125 L331 125 Z " />
<glyph glyph-name="q" unicode="q" horiz-adv-x="642" d="M410 -175 L589 -175 L589 523 L410 523 L410 449 C380 502 331 537 249 537 C125 537 27 442 27 264 L27 256 C27 75 126 -12 247 -12 C326 -12 384 31 410 81 L410 -175 Z M310 125 C248 125 209 170 209 258 L209 266 C209 357 245 402 312 402 C378 402 415 355 415 267 L415 259 C415 170 375 125 310 125 L310 125 Z " />
<glyph glyph-name="r" unicode="r" horiz-adv-x="428" d="M53 0 L232 0 L232 248 C232 332 292 366 401 363 L401 530 C320 531 265 497 232 419 L232 523 L53 523 L53 0 Z " />
<glyph glyph-name="s" unicode="s" horiz-adv-x="515" d="M258 -12 C403 -12 495 44 495 168 C495 280 425 318 280 336 C216 344 192 354 192 379 C192 403 212 420 251 420 C292 420 311 403 318 368 L480 368 C468 493 378 537 249 537 C128 537 25 481 25 365 C25 256 84 215 224 197 C296 187 321 175 321 150 C321 124 301 107 257 107 C206 107 189 128 183 166 L18 166 C22 50 109 -12 258 -12 L258 -12 Z " />
<glyph glyph-name="t" unicode="t" horiz-adv-x="389" d="M261 -12 C303 -12 337 -3 360 3 L360 139 C344 133 329 130 309 130 C275 130 256 147 256 185 L256 401 L359 401 L359 523 L256 523 L256 632 L77 632 L77 523 L14 523 L14 401 L77 401 L77 168 C77 45 143 -12 261 -12 L261 -12 Z " />
<glyph glyph-name="u" unicode="u" horiz-adv-x="623" d="M225 -12 C312 -12 363 27 391 81 L391 0 L570 0 L570 523 L391 523 L391 222 C391 155 356 123 302 123 C251 123 228 152 228 211 L228 523 L49 523 L49 182 C49 50 124 -12 225 -12 L225 -12 Z " />
<glyph glyph-name="v" unicode="v" horiz-adv-x="593" d="M200 0 L395 0 L586 523 L415 523 L308 186 L199 523 L8 523 L200 0 Z " />
<glyph glyph-name="w" unicode="w" horiz-adv-x="845" d="M167 0 L341 0 L422 292 L500 0 L671 0 L837 523 L667 523 L582 210 L504 523 L360 523 L272 210 L196 523 L9 523 L167 0 Z " />
<glyph glyph-name="x" unicode="x" horiz-adv-x="600" d="M11 0 L194 0 L289 156 L382 0 L588 0 L407 280 L572 523 L388 523 L309 385 L228 523 L22 523 L185 266 L11 0 Z " />
<glyph glyph-name="y" unicode="y" horiz-adv-x="589" d="M130 -175 L301 -175 L581 523 L410 523 L310 244 L202 523 L8 523 L217 53 L130 -175 Z " />
<glyph glyph-name="z" unicode="z" horiz-adv-x="508" d="M10 0 L483 0 L483 135 L260 135 L495 504 L495 523 L34 523 L34 388 L239 388 L10 18 L10 0 Z " />
<glyph glyph-name="braceleft" unicode="&#x7b;" horiz-adv-x="418" d="M380 -148 L380 -17 C303 -14 281 10 290 82 L303 183 C312 251 273 300 200 317 C273 334 312 382 303 450 L290 551 C281 622 303 643 380 647 L380 777 C178 777 86 713 113 546 L128 462 C136 415 108 378 31 378 L31 253 C108 253 136 215 128 168 L113 83 C86 -77 178 -148 380 -148 L380 -148 Z " />
<glyph glyph-name="bar" unicode="&#x7c;" horiz-adv-x="268" d="M71 -148 L196 -148 L196 776 L71 776 L71 -148 Z " />
<glyph glyph-name="braceright" unicode="&#x7d;" horiz-adv-x="418" d="M38 -148 C240 -148 332 -77 305 83 L290 168 C282 215 310 253 387 253 L387 378 C310 378 282 415 290 462 L305 546 C332 713 240 777 38 777 L38 647 C115 643 137 622 128 551 L115 450 C106 382 145 334 218 317 C145 300 106 251 115 183 L128 82 C137 10 115 -14 38 -17 L38 -148 Z " />
<glyph glyph-name="asciitilde" unicode="&#x7e;" horiz-adv-x="518" d="M28 214 L144 214 C149 242 163 260 190 260 C225 260 270 216 344 216 C416 216 485 281 490 414 L374 414 C370 385 355 368 329 368 C294 368 248 412 176 412 C103 412 36 357 28 214 L28 214 Z " />
<glyph glyph-name="uni00A0" unicode="&#xa0;" horiz-adv-x="258" d="" />
<glyph glyph-name="exclamdown" unicode="&#xa1;" horiz-adv-x="334" d="M66 -117 L268 -117 L241 363 L93 363 L66 -117 Z M167 410 C226 410 273 455 273 510 C273 565 226 609 167 609 C108 609 60 565 60 510 C60 455 108 410 167 410 L167 410 Z " />
<glyph glyph-name="cent" unicode="&#xa2;" horiz-adv-x="595" d="M275 -135 L353 -135 L353 -10 C490 3 571 85 577 206 L420 206 C416 157 390 127 353 116 L353 400 C384 389 405 362 410 322 L574 322 C564 458 470 524 353 535 L353 629 L275 629 L275 534 C134 518 25 421 25 263 L25 255 C25 93 131 3 275 -10 L275 -135 Z M202 257 L202 265 C202 338 230 383 275 399 L275 118 C229 135 202 181 202 257 L202 257 Z " />
<glyph glyph-name="sterling" unicode="&#xa3;" horiz-adv-x="657" d="M34 287 L124 287 C129 268 132 250 132 231 C132 209 129 191 124 176 C57 148 23 77 18 0 L169 0 C172 24 187 43 218 43 C266 43 327 -9 428 -9 C559 -9 630 84 635 209 L451 209 C448 168 426 150 388 150 C362 150 332 162 297 172 C303 190 307 209 307 231 C307 250 305 269 303 287 L460 287 L460 407 L283 407 C279 433 276 459 276 485 C276 538 307 571 355 571 C403 571 427 544 435 484 L622 484 C615 629 533 725 348 725 C193 725 73 643 73 496 C73 463 78 434 85 407 L34 407 L34 287 Z " />
<glyph glyph-name="yen" unicode="&#xa5;" horiz-adv-x="646" d="M64 294 L226 294 L226 243 L64 243 L64 171 L226 171 L226 0 L431 0 L431 171 L593 171 L593 243 L431 243 L431 294 L593 294 L593 365 L453 365 L635 715 L440 715 L337 482 L233 715 L11 715 L202 365 L64 365 L64 294 Z " />
<glyph glyph-name="brokenbar" unicode="&#xa6;" horiz-adv-x="270" d="M71 -148 L196 -148 L196 301 L71 301 L71 -148 Z M71 372 L196 372 L196 776 L71 776 L71 372 Z " />
<glyph glyph-name="section" unicode="&#xa7;" horiz-adv-x="606" d="M292 -137 C428 -137 521 -64 521 45 C521 93 506 131 477 160 C542 186 585 232 585 298 C585 421 491 461 357 493 C274 513 253 523 253 556 C253 583 271 602 310 602 C352 602 368 580 372 542 L534 542 C529 655 452 725 314 725 C181 725 85 655 85 541 C85 494 100 455 130 425 C65 401 22 356 22 288 C22 170 111 125 247 92 C328 73 354 61 354 30 C354 2 335 -16 296 -16 C254 -16 236 8 233 46 L70 46 C75 -67 153 -137 292 -137 L292 -137 Z M368 224 L295 249 C227 270 195 282 195 313 C195 338 210 355 239 360 L313 336 C383 314 412 305 412 271 C412 247 400 231 368 224 L368 224 Z " />
<glyph glyph-name="dieresis" unicode="&#xa8;" horiz-adv-x="400" d="M93 580 C141 580 179 617 179 663 C179 709 141 747 93 747 C46 747 8 709 8 663 C8 617 46 580 93 580 L93 580 Z M306 580 C354 580 392 617 392 663 C392 709 354 747 306 747 C258 747 221 709 221 663 C221 617 258 580 306 580 L306 580 Z " />
<glyph glyph-name="copyright" unicode="&#xa9;" horiz-adv-x="843" d="M428 151 C534 151 611 206 617 311 L494 311 C490 269 462 250 426 250 C375 250 348 287 348 355 L348 362 C348 431 376 466 424 466 C460 466 480 445 484 407 L612 407 C604 516 530 564 424 564 C305 564 216 485 216 362 L216 354 C216 231 285 151 428 151 L428 151 Z M420 31 C246 31 100 161 100 357 C100 551 241 684 422 684 C601 684 743 552 743 359 C743 163 597 31 420 31 L420 31 Z M420 -20 C636 -20 806 144 806 359 C806 569 640 735 422 735 C207 735 37 568 37 357 C37 143 208 -20 420 -20 L420 -20 Z " />
<glyph glyph-name="ordfeminine" unicode="&#xaa;" horiz-adv-x="483" d="M168 287 C236 287 272 317 290 345 L290 298 L443 298 L443 565 C443 674 370 723 247 723 C127 723 49 669 42 570 L190 570 C193 592 206 614 239 614 C277 614 287 593 287 560 L287 545 L247 545 C104 545 27 510 27 413 C27 324 94 287 168 287 L168 287 Z M226 393 C197 393 182 405 182 427 C182 454 204 466 251 466 L287 466 L287 443 C287 412 261 393 226 393 L226 393 Z " />
<glyph glyph-name="guillemotleft" unicode="&#xab;" horiz-adv-x="480" d="M155 70 L270 70 L151 261 L270 452 L155 452 L31 261 L155 70 Z M335 70 L450 70 L331 261 L450 452 L335 452 L211 261 L335 70 Z " />
<glyph glyph-name="registered" unicode="&#xae;" horiz-adv-x="517" d="M173 396 L243 396 L243 471 L255 471 L295 396 L367 396 L317 485 C339 495 354 512 354 543 L354 544 C354 591 323 615 263 615 L173 615 L173 396 Z M243 516 L243 562 L258 562 C277 562 286 556 286 540 L286 539 C286 524 277 516 258 516 L243 516 Z M258 319 C154 319 73 393 73 502 C73 610 150 687 258 687 C366 687 444 611 444 503 C444 395 363 319 258 319 L258 319 Z M258 281 C386 281 488 377 488 503 C488 627 388 725 258 725 C130 725 29 626 29 502 C29 376 131 281 258 281 L258 281 Z " />
<glyph glyph-name="macron" unicode="&#xaf;" horiz-adv-x="400" d="M46 612 L353 612 L353 712 L46 712 L46 612 Z " />
<glyph glyph-name="degree" unicode="&#xb0;" horiz-adv-x="453" d="M227 451 C173 451 134 495 134 551 C134 610 173 654 227 654 C280 654 318 610 318 551 C318 495 280 451 227 451 L227 451 Z M227 381 C324 381 403 459 403 551 C403 646 324 724 227 724 C129 724 50 646 50 551 C50 459 129 381 227 381 L227 381 Z " />
<glyph glyph-name="plusminus" unicode="&#xb1;" horiz-adv-x="570" d="M213 176 L357 176 L357 341 L533 341 L533 472 L357 472 L357 636 L213 636 L213 472 L37 472 L37 341 L213 341 L213 176 Z M37 0 L535 0 L535 118 L37 118 L37 0 Z " />
<glyph glyph-name="twosuperior" unicode="&#xb2;" horiz-adv-x="353" d="M5 339 L332 339 L332 434 L219 434 L254 468 C299 509 331 549 331 600 C331 668 281 720 176 720 C76 720 13 669 10 571 L130 571 C134 607 148 623 170 623 C191 623 201 611 201 591 C201 561 175 532 133 489 L5 356 L5 339 Z " />
<glyph glyph-name="threesuperior" unicode="&#xb3;" horiz-adv-x="374" d="M186 332 C296 332 351 381 351 453 C351 498 320 528 275 535 C318 547 343 574 343 616 C343 682 285 720 187 720 C84 720 32 666 26 591 L142 591 C146 616 162 629 184 629 C207 629 218 617 218 600 C218 578 205 566 173 566 L143 566 L143 492 L173 492 C204 492 218 480 218 458 C218 437 204 424 179 424 C150 424 137 442 134 466 L18 466 C22 388 68 332 186 332 L186 332 Z " />
<glyph glyph-name="acute" unicode="&#xb4;" horiz-adv-x="400" d="M129 583 L257 583 L362 749 L182 749 L129 583 Z " />
<glyph glyph-name="paragraph" unicode="&#xb6;" horiz-adv-x="551" d="M256 -100 L331 -100 L331 651 L405 651 L405 -100 L481 -100 L481 715 L248 715 C119 715 28 651 28 518 C28 391 115 329 248 329 L256 329 L256 -100 Z " />
<glyph glyph-name="periodcentered" unicode="&#xb7;" horiz-adv-x="299" d="M148 225 C208 225 253 270 253 326 C253 382 208 427 148 427 C89 427 46 382 46 326 C46 270 89 225 148 225 L148 225 Z " />
<glyph glyph-name="cedilla" unicode="&#xb8;" horiz-adv-x="400" d="M204 -226 C277 -226 325 -191 325 -131 C325 -66 272 -39 214 -45 L245 0 L173 0 L125 -73 L164 -111 C170 -106 180 -100 196 -100 C217 -100 229 -113 229 -131 C229 -148 217 -161 197 -161 C175 -161 165 -148 161 -133 L77 -133 C86 -193 132 -226 204 -226 L204 -226 Z " />
<glyph glyph-name="onesuperior" unicode="&#xb9;" horiz-adv-x="286" d="M102 339 L236 339 L236 715 L122 715 L20 648 L20 541 L102 587 L102 339 Z " />
<glyph glyph-name="ordmasculine" unicode="&#xba;" horiz-adv-x="522" d="M262 404 C213 404 190 438 190 505 L190 511 C190 575 216 607 262 607 C309 607 332 573 332 509 L332 503 C332 438 309 404 262 404 L262 404 Z M261 287 C390 287 492 367 492 504 L492 510 C492 644 391 723 262 723 C131 723 30 641 30 505 L30 499 C30 363 131 287 261 287 L261 287 Z " />
<glyph glyph-name="guillemotright" unicode="&#xbb;" horiz-adv-x="480" d="M30 70 L145 70 L270 261 L145 452 L30 452 L150 261 L30 70 Z M210 70 L325 70 L450 261 L325 452 L210 452 L330 261 L210 70 Z " />
<glyph glyph-name="onequarter" unicode="&#xbc;" horiz-adv-x="795" d="M105 339 L239 339 L239 715 L125 715 L23 648 L23 541 L105 587 L105 339 Z M66 0 L160 0 L720 715 L626 715 L66 0 Z M596 0 L724 0 L724 70 L772 70 L772 157 L724 157 L724 376 L565 376 L409 119 L409 70 L596 70 L596 0 Z M523 157 L600 288 L600 157 L523 157 Z " />
<glyph glyph-name="onehalf" unicode="&#xbd;" horiz-adv-x="807" d="M53 0 L147 0 L707 715 L613 715 L53 0 Z M105 339 L239 339 L239 715 L125 715 L23 648 L23 541 L105 587 L105 339 Z M455 0 L782 0 L782 95 L669 95 L704 128 C749 170 781 209 781 261 C781 328 731 381 626 381 C526 381 463 330 460 231 L580 231 C584 268 598 284 620 284 C641 284 651 272 651 251 C651 222 625 192 583 150 L455 17 L455 0 Z " />
<glyph glyph-name="threequarters" unicode="&#xbe;" horiz-adv-x="826" d="M189 332 C299 332 354 381 354 453 C354 498 323 528 278 535 C321 547 346 574 346 616 C346 682 288 720 190 720 C87 720 35 666 29 591 L145 591 C149 616 165 629 187 629 C210 629 221 617 221 600 C221 578 208 566 176 566 L146 566 L146 492 L176 492 C207 492 221 480 221 458 C221 437 207 424 182 424 C153 424 140 442 137 466 L21 466 C25 388 71 332 189 332 L189 332 Z M114 0 L208 0 L768 715 L674 715 L114 0 Z M625 0 L753 0 L753 70 L801 70 L801 157 L753 157 L753 376 L594 376 L438 119 L438 70 L625 70 L625 0 Z M552 157 L629 288 L629 157 L552 157 Z " />
<glyph glyph-name="questiondown" unicode="&#xbf;" horiz-adv-x="556" d="M387 364 L218 364 L218 349 C209 300 153 261 103 212 C63 172 30 127 30 62 C30 -57 117 -127 272 -127 C425 -127 533 -45 538 107 L364 107 C357 52 329 19 285 19 C244 19 224 40 224 79 C224 114 255 144 290 177 C336 220 387 268 387 345 L387 364 Z M303 610 C244 610 196 566 196 511 C196 455 244 411 303 411 C363 411 410 455 410 511 C410 566 363 610 303 610 L303 610 Z " />
<glyph glyph-name="Agrave" unicode="&#xc0;" horiz-adv-x="747" d="M13 0 L204 0 L242 133 L479 133 L517 0 L734 0 L507 715 L242 715 L13 0 Z M312 759 L447 759 L398 905 L212 905 L312 759 Z M361 549 L439 274 L282 274 L361 549 Z " />
<glyph glyph-name="Aacute" unicode="&#xc1;" horiz-adv-x="747" d="M13 0 L204 0 L242 133 L479 133 L517 0 L734 0 L507 715 L242 715 L13 0 Z M295 759 L430 759 L533 905 L346 905 L295 759 Z M361 549 L439 274 L282 274 L361 549 Z " />
<glyph glyph-name="Acircumflex" unicode="&#xc2;" horiz-adv-x="747" d="M13 0 L204 0 L242 133 L479 133 L517 0 L734 0 L507 715 L242 715 L13 0 Z M184 759 L311 759 L369 808 L428 759 L558 759 L448 905 L298 905 L184 759 Z M361 549 L439 274 L282 274 L361 549 Z " />
<glyph glyph-name="Atilde" unicode="&#xc3;" horiz-adv-x="747" d="M13 0 L204 0 L242 133 L479 133 L517 0 L734 0 L507 715 L242 715 L13 0 Z M436 758 C496 758 552 806 559 911 L458 911 C454 892 444 879 426 879 C393 879 359 912 305 912 C243 912 190 864 183 759 L285 759 C288 778 300 792 316 792 C347 792 379 758 436 758 L436 758 Z M361 549 L439 274 L282 274 L361 549 Z " />
<glyph glyph-name="Adieresis" unicode="&#xc4;" horiz-adv-x="747" d="M13 0 L204 0 L242 133 L479 133 L517 0 L734 0 L507 715 L242 715 L13 0 Z M482 758 C530 758 568 795 568 841 C568 888 530 925 482 925 C434 925 397 888 397 841 C397 795 434 758 482 758 L482 758 Z M259 758 C307 758 345 795 345 841 C345 888 307 925 259 925 C212 925 174 888 174 841 C174 795 212 758 259 758 L259 758 Z M361 549 L439 274 L282 274 L361 549 Z " />
<glyph glyph-name="Aring" unicode="&#xc5;" horiz-adv-x="747" d="M13 0 L204 0 L242 133 L479 133 L517 0 L734 0 L507 715 L242 715 L13 0 Z M371 744 C437 744 491 797 491 860 C491 924 437 976 371 976 C305 976 251 924 251 860 C251 797 305 744 371 744 L371 744 Z M361 549 L439 274 L282 274 L361 549 Z M371 810 C343 810 325 831 325 860 C325 890 343 911 371 911 C398 911 417 890 417 860 C417 831 398 810 371 810 L371 810 Z " />
<glyph glyph-name="AE" unicode="&#xc6;" horiz-adv-x="1002" d="M11 0 L206 0 L269 146 L466 146 L466 0 L970 0 L970 158 L671 158 L671 288 L894 288 L894 434 L671 434 L671 557 L954 557 L954 715 L332 715 L11 0 Z M446 557 L466 557 L466 284 L328 284 L446 557 Z " />
<glyph glyph-name="Ccedilla" unicode="&#xc7;" horiz-adv-x="759" d="M379 -226 C452 -226 500 -191 500 -131 C500 -66 447 -39 389 -45 L411 -12 C593 -10 724 86 738 269 L534 269 C524 190 473 152 401 152 C303 152 248 225 248 354 L248 362 C248 492 306 564 398 564 C470 564 510 524 518 451 L729 451 C712 640 583 726 397 726 C188 726 32 581 32 361 L32 353 C32 153 134 14 342 -8 L300 -73 L339 -111 C345 -106 355 -100 371 -100 C392 -100 404 -113 404 -131 C404 -148 392 -161 372 -161 C350 -161 340 -148 336 -133 L252 -133 C261 -193 307 -226 379 -226 L379 -226 Z " />
<glyph glyph-name="Egrave" unicode="&#xc8;" horiz-adv-x="612" d="M264 759 L399 759 L350 905 L164 905 L264 759 Z M69 0 L579 0 L579 158 L273 158 L273 288 L504 288 L504 434 L273 434 L273 557 L563 557 L563 715 L69 715 L69 0 Z " />
<glyph glyph-name="Eacute" unicode="&#xc9;" horiz-adv-x="612" d="M247 759 L382 759 L485 905 L298 905 L247 759 Z M69 0 L579 0 L579 158 L273 158 L273 288 L504 288 L504 434 L273 434 L273 557 L563 557 L563 715 L69 715 L69 0 Z " />
<glyph glyph-name="Ecircumflex" unicode="&#xca;" horiz-adv-x="612" d="M136 759 L263 759 L321 808 L380 759 L510 759 L400 905 L250 905 L136 759 Z M69 0 L579 0 L579 158 L273 158 L273 288 L504 288 L504 434 L273 434 L273 557 L563 557 L563 715 L69 715 L69 0 Z " />
<glyph glyph-name="Edieresis" unicode="&#xcb;" horiz-adv-x="612" d="M69 0 L579 0 L579 158 L273 158 L273 288 L504 288 L504 434 L273 434 L273 557 L563 557 L563 715 L69 715 L69 0 Z M211 758 C259 758 297 795 297 841 C297 888 259 925 211 925 C164 925 126 888 126 841 C126 795 164 758 211 758 L211 758 Z M434 758 C482 758 520 795 520 841 C520 888 482 925 434 925 C386 925 349 888 349 841 C349 795 386 758 434 758 L434 758 Z " />
<glyph glyph-name="Igrave" unicode="&#xcc;" horiz-adv-x="352" d="M73 0 L280 0 L280 715 L73 715 L73 0 Z M117 759 L252 759 L203 905 L17 905 L117 759 Z " />
<glyph glyph-name="Iacute" unicode="&#xcd;" horiz-adv-x="352" d="M73 0 L280 0 L280 715 L73 715 L73 0 Z M100 759 L235 759 L338 905 L151 905 L100 759 Z " />
<glyph glyph-name="Icircumflex" unicode="&#xce;" horiz-adv-x="352" d="M73 0 L280 0 L280 715 L73 715 L73 0 Z M-11 759 L116 759 L174 808 L233 759 L363 759 L253 905 L103 905 L-11 759 Z " />
<glyph glyph-name="Idieresis" unicode="&#xcf;" horiz-adv-x="352" d="M73 0 L280 0 L280 715 L73 715 L73 0 Z M64 758 C112 758 150 795 150 841 C150 888 112 925 64 925 C17 925 -21 888 -21 841 C-21 795 17 758 64 758 L64 758 Z M287 758 C335 758 373 795 373 841 C373 888 335 925 287 925 C239 925 202 888 202 841 C202 795 239 758 287 758 L287 758 Z " />
<glyph glyph-name="Eth" unicode="&#xd0;" horiz-adv-x="774" d="M29 290 L88 290 L88 0 L347 0 C599 0 730 135 730 358 L730 366 C730 588 602 715 347 715 L88 715 L88 428 L29 428 L29 290 Z M289 158 L289 290 L409 290 L409 428 L289 428 L289 557 L339 557 C463 557 516 499 516 363 L516 355 C516 222 462 158 341 158 L289 158 Z " />
<glyph glyph-name="Ntilde" unicode="&#xd1;" horiz-adv-x="777" d="M471 758 C531 758 587 806 594 911 L493 911 C489 892 479 879 461 879 C428 879 394 912 340 912 C278 912 225 864 218 759 L320 759 C323 778 335 792 351 792 C382 792 414 758 471 758 L471 758 Z M69 0 L249 0 L249 449 L510 0 L708 0 L708 715 L529 715 L529 312 L300 715 L69 715 L69 0 Z " />
<glyph glyph-name="Ograve" unicode="&#xd2;" horiz-adv-x="819" d="M349 759 L484 759 L435 905 L249 905 L349 759 Z M410 149 C311 149 245 224 245 354 L245 362 C245 492 308 565 409 565 C510 565 574 490 574 363 L574 355 C574 227 511 149 410 149 L410 149 Z M406 -12 C637 -12 788 138 788 358 L788 366 C788 588 627 725 409 725 C195 725 31 579 31 361 L31 353 C31 138 175 -12 406 -12 L406 -12 Z " />
<glyph glyph-name="Oacute" unicode="&#xd3;" horiz-adv-x="819" d="M332 759 L467 759 L570 905 L383 905 L332 759 Z M410 149 C311 149 245 224 245 354 L245 362 C245 492 308 565 409 565 C510 565 574 490 574 363 L574 355 C574 227 511 149 410 149 L410 149 Z M406 -12 C637 -12 788 138 788 358 L788 366 C788 588 627 725 409 725 C195 725 31 579 31 361 L31 353 C31 138 175 -12 406 -12 L406 -12 Z " />
<glyph glyph-name="Ocircumflex" unicode="&#xd4;" horiz-adv-x="819" d="M221 759 L348 759 L406 808 L465 759 L595 759 L485 905 L335 905 L221 759 Z M410 149 C311 149 245 224 245 354 L245 362 C245 492 308 565 409 565 C510 565 574 490 574 363 L574 355 C574 227 511 149 410 149 L410 149 Z M406 -12 C637 -12 788 138 788 358 L788 366 C788 588 627 725 409 725 C195 725 31 579 31 361 L31 353 C31 138 175 -12 406 -12 L406 -12 Z " />
<glyph glyph-name="Otilde" unicode="&#xd5;" horiz-adv-x="819" d="M473 758 C533 758 589 806 596 911 L495 911 C491 892 481 879 463 879 C430 879 396 912 342 912 C280 912 227 864 220 759 L322 759 C325 778 337 792 353 792 C384 792 416 758 473 758 L473 758 Z M410 149 C311 149 245 224 245 354 L245 362 C245 492 308 565 409 565 C510 565 574 490 574 363 L574 355 C574 227 511 149 410 149 L410 149 Z M406 -12 C637 -12 788 138 788 358 L788 366 C788 588 627 725 409 725 C195 725 31 579 31 361 L31 353 C31 138 175 -12 406 -12 L406 -12 Z " />
<glyph glyph-name="Odieresis" unicode="&#xd6;" horiz-adv-x="819" d="M296 758 C344 758 382 795 382 841 C382 888 344 925 296 925 C249 925 211 888 211 841 C211 795 249 758 296 758 L296 758 Z M519 758 C567 758 605 795 605 841 C605 888 567 925 519 925 C471 925 434 888 434 841 C434 795 471 758 519 758 L519 758 Z M410 149 C311 149 245 224 245 354 L245 362 C245 492 308 565 409 565 C510 565 574 490 574 363 L574 355 C574 227 511 149 410 149 L410 149 Z M406 -12 C637 -12 788 138 788 358 L788 366 C788 588 627 725 409 725 C195 725 31 579 31 361 L31 353 C31 138 175 -12 406 -12 L406 -12 Z " />
<glyph glyph-name="multiply" unicode="&#xd7;" horiz-adv-x="571" d="M133 90 L285 242 L439 87 L534 182 L379 336 L532 488 L438 583 L285 430 L131 586 L36 490 L191 336 L39 184 L133 90 Z " />
<glyph glyph-name="Oslash" unicode="&#xd8;" horiz-adv-x="819" d="M91 -32 L173 55 C234 12 313 -12 406 -12 C637 -12 788 138 788 358 L788 366 C788 466 755 549 699 609 L768 682 L709 740 L636 663 C574 703 496 725 409 725 C195 725 31 579 31 361 L31 353 C31 257 60 173 112 111 L32 26 L91 -32 Z M410 149 C366 149 329 162 300 189 L560 462 C570 434 576 401 576 363 L576 355 C576 227 512 149 410 149 L410 149 Z M243 354 L243 362 C243 492 307 565 409 565 C449 565 484 554 511 532 L256 262 C247 288 243 319 243 354 L243 354 Z " />
<glyph glyph-name="Ugrave" unicode="&#xd9;" horiz-adv-x="764" d="M321 759 L456 759 L407 905 L221 905 L321 759 Z M381 -12 C578 -12 700 85 700 293 L700 715 L493 715 L493 302 C493 195 466 149 381 149 C294 149 269 198 269 299 L269 715 L64 715 L64 290 C64 90 179 -12 381 -12 L381 -12 Z " />
<glyph glyph-name="Uacute" unicode="&#xda;" horiz-adv-x="764" d="M304 759 L439 759 L542 905 L355 905 L304 759 Z M381 -12 C578 -12 700 85 700 293 L700 715 L493 715 L493 302 C493 195 466 149 381 149 C294 149 269 198 269 299 L269 715 L64 715 L64 290 C64 90 179 -12 381 -12 L381 -12 Z " />
<glyph glyph-name="Ucircumflex" unicode="&#xdb;" horiz-adv-x="764" d="M193 759 L320 759 L378 808 L437 759 L567 759 L457 905 L307 905 L193 759 Z M381 -12 C578 -12 700 85 700 293 L700 715 L493 715 L493 302 C493 195 466 149 381 149 C294 149 269 198 269 299 L269 715 L64 715 L64 290 C64 90 179 -12 381 -12 L381 -12 Z " />
<glyph glyph-name="Udieresis" unicode="&#xdc;" horiz-adv-x="764" d="M381 -12 C578 -12 700 85 700 293 L700 715 L493 715 L493 302 C493 195 466 149 381 149 C294 149 269 198 269 299 L269 715 L64 715 L64 290 C64 90 179 -12 381 -12 L381 -12 Z M268 758 C316 758 354 795 354 841 C354 888 316 925 268 925 C221 925 183 888 183 841 C183 795 221 758 268 758 L268 758 Z M491 758 C539 758 577 795 577 841 C577 888 539 925 491 925 C443 925 406 888 406 841 C406 795 443 758 491 758 L491 758 Z " />
<glyph glyph-name="Yacute" unicode="&#xdd;" horiz-adv-x="677" d="M241 0 L447 0 L447 306 L669 715 L473 715 L352 474 L231 715 L8 715 L241 306 L241 0 Z M269 759 L404 759 L507 905 L320 905 L269 759 Z " />
<glyph glyph-name="Thorn" unicode="&#xde;" horiz-adv-x="652" d="M69 0 L273 0 L273 135 L350 135 C527 135 628 215 628 364 L628 368 C628 522 537 598 341 598 L273 598 L273 715 L69 715 L69 0 Z M273 275 L273 452 L333 452 C397 452 433 429 433 367 L433 363 C433 304 398 275 332 275 L273 275 Z " />
<glyph glyph-name="germandbls" unicode="&#xdf;" horiz-adv-x="636" d="M381 -10 C514 -10 612 68 612 230 L612 237 C612 356 531 423 437 444 C506 465 556 517 556 586 L556 588 C556 709 465 771 322 771 C176 771 53 705 53 544 L53 0 L232 0 L232 559 C232 618 263 653 311 653 C360 653 386 626 386 581 L386 578 C386 539 358 500 291 500 L291 367 C372 366 430 340 430 249 L430 243 C430 152 384 127 334 127 C313 127 297 132 285 136 L285 1 C304 -4 337 -10 381 -10 L381 -10 Z " />
<glyph glyph-name="agrave" unicode="&#xe0;" horiz-adv-x="578" d="M200 -12 C284 -12 330 23 355 61 L355 0 L529 0 L529 339 C529 478 437 537 293 537 C150 537 51 475 43 349 L211 349 C215 382 233 411 282 411 C339 411 351 378 351 328 L351 316 L301 316 C127 316 23 268 23 145 C23 34 106 -12 200 -12 L200 -12 Z M262 109 C220 109 200 128 200 158 C200 201 232 215 304 215 L351 215 L351 183 C351 138 313 109 262 109 L262 109 Z M232 583 L360 583 L307 749 L127 749 L232 583 Z " />
<glyph glyph-name="aacute" unicode="&#xe1;" horiz-adv-x="578" d="M200 -12 C284 -12 330 23 355 61 L355 0 L529 0 L529 339 C529 478 437 537 293 537 C150 537 51 475 43 349 L211 349 C215 382 233 411 282 411 C339 411 351 378 351 328 L351 316 L301 316 C127 316 23 268 23 145 C23 34 106 -12 200 -12 L200 -12 Z M262 109 C220 109 200 128 200 158 C200 201 232 215 304 215 L351 215 L351 183 C351 138 313 109 262 109 L262 109 Z M222 583 L350 583 L455 749 L275 749 L222 583 Z " />
<glyph glyph-name="acircumflex" unicode="&#xe2;" horiz-adv-x="578" d="M200 -12 C284 -12 330 23 355 61 L355 0 L529 0 L529 339 C529 478 437 537 293 537 C150 537 51 475 43 349 L211 349 C215 382 233 411 282 411 C339 411 351 378 351 328 L351 316 L301 316 C127 316 23 268 23 145 C23 34 106 -12 200 -12 L200 -12 Z M262 109 C220 109 200 128 200 158 C200 201 232 215 304 215 L351 215 L351 183 C351 138 313 109 262 109 L262 109 Z M102 585 L225 585 L285 641 L346 585 L471 585 L353 748 L225 748 L102 585 Z " />
<glyph glyph-name="atilde" unicode="&#xe3;" horiz-adv-x="578" d="M200 -12 C284 -12 330 23 355 61 L355 0 L529 0 L529 339 C529 478 437 537 293 537 C150 537 51 475 43 349 L211 349 C215 382 233 411 282 411 C339 411 351 378 351 328 L351 316 L301 316 C127 316 23 268 23 145 C23 34 106 -12 200 -12 L200 -12 Z M262 109 C220 109 200 128 200 158 C200 201 232 215 304 215 L351 215 L351 183 C351 138 313 109 262 109 L262 109 Z M355 587 C415 587 465 638 473 742 L376 742 C372 723 362 710 344 710 C311 710 279 744 225 744 C163 744 117 693 110 588 L207 588 C210 607 222 620 238 620 C269 620 299 587 355 587 L355 587 Z " />
<glyph glyph-name="adieresis" unicode="&#xe4;" horiz-adv-x="578" d="M200 -12 C284 -12 330 23 355 61 L355 0 L529 0 L529 339 C529 478 437 537 293 537 C150 537 51 475 43 349 L211 349 C215 382 233 411 282 411 C339 411 351 378 351 328 L351 316 L301 316 C127 316 23 268 23 145 C23 34 106 -12 200 -12 L200 -12 Z M262 109 C220 109 200 128 200 158 C200 201 232 215 304 215 L351 215 L351 183 C351 138 313 109 262 109 L262 109 Z M184 580 C232 580 270 617 270 663 C270 709 232 747 184 747 C137 747 99 709 99 663 C99 617 137 580 184 580 L184 580 Z M397 580 C445 580 483 617 483 663 C483 709 445 747 397 747 C349 747 312 709 312 663 C312 617 349 580 397 580 L397 580 Z " />
<glyph glyph-name="aring" unicode="&#xe5;" horiz-adv-x="578" d="M200 -12 C284 -12 330 23 355 61 L355 0 L529 0 L529 339 C529 478 437 537 293 537 C150 537 51 475 43 349 L211 349 C215 382 233 411 282 411 C339 411 351 378 351 328 L351 316 L301 316 C127 316 23 268 23 145 C23 34 106 -12 200 -12 L200 -12 Z M262 109 C220 109 200 128 200 158 C200 201 232 215 304 215 L351 215 L351 183 C351 138 313 109 262 109 L262 109 Z M291 642 C264 642 245 663 245 692 C245 721 264 742 291 742 C318 742 337 721 337 692 C337 663 318 642 291 642 L291 642 Z M291 578 C356 578 409 629 409 692 C409 755 356 807 291 807 C226 807 173 755 173 692 C173 629 226 578 291 578 L291 578 Z " />
<glyph glyph-name="ae" unicode="&#xe6;" horiz-adv-x="908" d="M627 -12 C779 -12 868 55 884 173 L717 173 C710 138 686 111 628 111 C565 111 529 150 524 221 L884 221 L884 267 C884 456 763 537 622 537 C553 537 497 515 455 475 C422 517 366 537 286 537 C151 537 51 475 43 349 L211 349 C216 385 234 411 283 411 C339 411 353 379 353 328 L353 319 L300 319 C126 319 23 268 23 145 C23 34 111 -12 217 -12 C319 -12 381 22 424 79 C465 19 533 -12 627 -12 L627 -12 Z M525 319 C532 383 569 419 622 419 C679 419 707 384 711 319 L525 319 Z M263 109 C221 109 200 128 200 162 C200 206 235 218 303 218 L353 218 L353 183 C353 138 318 109 263 109 L263 109 Z " />
<glyph glyph-name="ccedilla" unicode="&#xe7;" horiz-adv-x="583" d="M281 -226 C354 -226 402 -191 402 -131 C402 -66 349 -39 291 -45 L314 -12 C474 -7 558 77 563 206 L402 206 C396 149 361 119 311 119 C243 119 208 166 208 257 L208 265 C208 353 245 398 308 398 C360 398 384 371 392 322 L560 322 C550 481 432 537 304 537 C150 537 25 437 25 263 L25 255 C25 100 117 11 245 -8 L202 -73 L241 -111 C247 -106 257 -100 273 -100 C294 -100 306 -113 306 -131 C306 -148 294 -161 274 -161 C252 -161 242 -148 238 -133 L154 -133 C163 -193 209 -226 281 -226 L281 -226 Z " />
<glyph glyph-name="egrave" unicode="&#xe8;" horiz-adv-x="598" d="M309 -12 C467 -12 558 55 574 173 L406 173 C399 138 374 111 315 111 C251 111 211 151 206 220 L574 220 L574 267 C574 455 451 537 308 537 C150 537 25 431 25 263 L25 255 C25 84 145 -12 309 -12 L309 -12 Z M208 321 C217 384 254 419 308 419 C366 419 397 384 400 321 L208 321 Z M244 583 L372 583 L319 749 L139 749 L244 583 Z " />
<glyph glyph-name="eacute" unicode="&#xe9;" horiz-adv-x="598" d="M234 583 L362 583 L467 749 L287 749 L234 583 Z M309 -12 C467 -12 558 55 574 173 L406 173 C399 138 374 111 315 111 C251 111 211 151 206 220 L574 220 L574 267 C574 455 451 537 308 537 C150 537 25 431 25 263 L25 255 C25 84 145 -12 309 -12 L309 -12 Z M208 321 C217 384 254 419 308 419 C366 419 397 384 400 321 L208 321 Z " />
<glyph glyph-name="ecircumflex" unicode="&#xea;" horiz-adv-x="598" d="M118 585 L241 585 L301 641 L362 585 L487 585 L369 748 L241 748 L118 585 Z M309 -12 C467 -12 558 55 574 173 L406 173 C399 138 374 111 315 111 C251 111 211 151 206 220 L574 220 L574 267 C574 455 451 537 308 537 C150 537 25 431 25 263 L25 255 C25 84 145 -12 309 -12 L309 -12 Z M208 321 C217 384 254 419 308 419 C366 419 397 384 400 321 L208 321 Z " />
<glyph glyph-name="edieresis" unicode="&#xeb;" horiz-adv-x="598" d="M196 580 C244 580 282 617 282 663 C282 709 244 747 196 747 C149 747 111 709 111 663 C111 617 149 580 196 580 L196 580 Z M409 580 C457 580 495 617 495 663 C495 709 457 747 409 747 C361 747 324 709 324 663 C324 617 361 580 409 580 L409 580 Z M309 -12 C467 -12 558 55 574 173 L406 173 C399 138 374 111 315 111 C251 111 211 151 206 220 L574 220 L574 267 C574 455 451 537 308 537 C150 537 25 431 25 263 L25 255 C25 84 145 -12 309 -12 L309 -12 Z M208 321 C217 384 254 419 308 419 C366 419 397 384 400 321 L208 321 Z " />
<glyph glyph-name="igrave" unicode="&#xec;" horiz-adv-x="295" d="M58 0 L237 0 L237 523 L58 523 L58 0 Z M89 583 L217 583 L164 749 L-16 749 L89 583 Z " />
<glyph glyph-name="iacute" unicode="&#xed;" horiz-adv-x="295" d="M79 583 L207 583 L312 749 L132 749 L79 583 Z M58 0 L237 0 L237 523 L58 523 L58 0 Z " />
<glyph glyph-name="icircumflex" unicode="&#xee;" horiz-adv-x="295" d="M-37 585 L86 585 L146 641 L207 585 L332 585 L214 748 L86 748 L-37 585 Z M58 0 L237 0 L237 523 L58 523 L58 0 Z " />
<glyph glyph-name="idieresis" unicode="&#xef;" horiz-adv-x="295" d="M42 580 C90 580 128 617 128 663 C128 709 90 747 42 747 C-5 747 -43 709 -43 663 C-43 617 -5 580 42 580 L42 580 Z M252 580 C300 580 338 617 338 663 C338 709 300 747 252 747 C205 747 167 709 167 663 C167 617 205 580 252 580 L252 580 Z M58 0 L237 0 L237 523 L58 523 L58 0 Z " />
<glyph glyph-name="eth" unicode="&#xf0;" horiz-adv-x="623" d="M141 556 L280 607 C316 569 347 528 367 485 C336 517 310 529 259 529 C142 529 25 434 25 274 L25 263 C25 89 147 -12 308 -12 C481 -12 597 100 597 283 L597 305 C597 459 515 579 427 661 L497 687 L473 750 L367 711 C345 727 323 741 304 753 L106 753 C143 726 185 694 226 658 L117 618 L141 556 Z M312 121 C243 121 208 170 208 260 L208 268 C208 356 246 403 312 403 C380 403 415 354 415 266 L415 258 C415 171 379 121 312 121 L312 121 Z " />
<glyph glyph-name="ntilde" unicode="&#xf1;" horiz-adv-x="624" d="M53 0 L232 0 L232 293 C232 360 268 392 321 392 C373 392 396 363 396 304 L396 0 L575 0 L575 340 C575 474 505 537 404 537 C317 537 260 493 232 439 L232 523 L53 523 L53 0 Z M377 587 C437 587 487 638 495 742 L398 742 C394 723 384 710 366 710 C333 710 301 744 247 744 C185 744 139 693 132 588 L229 588 C232 607 244 620 260 620 C291 620 321 587 377 587 L377 587 Z " />
<glyph glyph-name="ograve" unicode="&#xf2;" horiz-adv-x="622" d="M312 121 C243 121 208 170 208 260 L208 268 C208 356 245 403 312 403 C380 403 415 354 415 266 L415 258 C415 171 379 121 312 121 L312 121 Z M311 -12 C472 -12 597 90 597 260 L597 268 C597 434 473 537 312 537 C150 537 25 431 25 263 L25 255 C25 86 150 -12 311 -12 L311 -12 Z M252 583 L380 583 L327 749 L147 749 L252 583 Z " />
<glyph glyph-name="oacute" unicode="&#xf3;" horiz-adv-x="622" d="M242 583 L370 583 L475 749 L295 749 L242 583 Z M312 121 C243 121 208 170 208 260 L208 268 C208 356 245 403 312 403 C380 403 415 354 415 266 L415 258 C415 171 379 121 312 121 L312 121 Z M311 -12 C472 -12 597 90 597 260 L597 268 C597 434 473 537 312 537 C150 537 25 431 25 263 L25 255 C25 86 150 -12 311 -12 L311 -12 Z " />
<glyph glyph-name="ocircumflex" unicode="&#xf4;" horiz-adv-x="622" d="M126 585 L249 585 L309 641 L370 585 L495 585 L377 748 L249 748 L126 585 Z M312 121 C243 121 208 170 208 260 L208 268 C208 356 245 403 312 403 C380 403 415 354 415 266 L415 258 C415 171 379 121 312 121 L312 121 Z M311 -12 C472 -12 597 90 597 260 L597 268 C597 434 473 537 312 537 C150 537 25 431 25 263 L25 255 C25 86 150 -12 311 -12 L311 -12 Z " />
<glyph glyph-name="otilde" unicode="&#xf5;" horiz-adv-x="622" d="M312 121 C243 121 208 170 208 260 L208 268 C208 356 245 403 312 403 C380 403 415 354 415 266 L415 258 C415 171 379 121 312 121 L312 121 Z M311 -12 C472 -12 597 90 597 260 L597 268 C597 434 473 537 312 537 C150 537 25 431 25 263 L25 255 C25 86 150 -12 311 -12 L311 -12 Z M375 587 C435 587 485 638 493 742 L396 742 C392 723 382 710 364 710 C331 710 299 744 245 744 C183 744 137 693 130 588 L227 588 C230 607 242 620 258 620 C289 620 319 587 375 587 L375 587 Z " />
<glyph glyph-name="odieresis" unicode="&#xf6;" horiz-adv-x="622" d="M204 580 C252 580 290 617 290 663 C290 709 252 747 204 747 C157 747 119 709 119 663 C119 617 157 580 204 580 L204 580 Z M417 580 C465 580 503 617 503 663 C503 709 465 747 417 747 C369 747 332 709 332 663 C332 617 369 580 417 580 L417 580 Z M312 121 C243 121 208 170 208 260 L208 268 C208 356 245 403 312 403 C380 403 415 354 415 266 L415 258 C415 171 379 121 312 121 L312 121 Z M311 -12 C472 -12 597 90 597 260 L597 268 C597 434 473 537 312 537 C150 537 25 431 25 263 L25 255 C25 86 150 -12 311 -12 L311 -12 Z " />
<glyph glyph-name="divide" unicode="&#xf7;" horiz-adv-x="572" d="M286 43 C338 43 380 83 380 135 C380 186 338 228 286 228 C234 228 192 186 192 135 C192 83 234 43 286 43 L286 43 Z M37 278 L535 278 L535 402 L37 402 L37 278 Z M286 452 C338 452 380 494 380 545 C380 597 338 637 286 637 C234 637 192 597 192 545 C192 494 234 452 286 452 L286 452 Z " />
<glyph glyph-name="oslash" unicode="&#xf8;" horiz-adv-x="622" d="M73 -39 L141 33 C188 4 246 -12 311 -12 C472 -12 597 90 597 260 L597 268 C597 342 572 403 530 449 L592 515 L540 563 L475 494 C429 522 373 537 312 537 C150 537 25 431 25 263 L25 255 C25 182 48 123 87 79 L21 9 L73 -39 Z M312 120 C284 120 261 128 244 143 L411 321 C415 305 417 286 417 266 L417 258 C417 170 381 120 312 120 L312 120 Z M206 260 L206 268 C206 357 244 404 312 404 C337 404 357 398 373 385 L210 211 C207 225 206 242 206 260 L206 260 Z " />
<glyph glyph-name="ugrave" unicode="&#xf9;" horiz-adv-x="623" d="M225 -12 C312 -12 363 27 391 81 L391 0 L570 0 L570 523 L391 523 L391 222 C391 155 356 123 302 123 C251 123 228 152 228 211 L228 523 L49 523 L49 182 C49 50 124 -12 225 -12 L225 -12 Z M251 583 L379 583 L326 749 L146 749 L251 583 Z " />
<glyph glyph-name="uacute" unicode="&#xfa;" horiz-adv-x="623" d="M241 583 L369 583 L474 749 L294 749 L241 583 Z M225 -12 C312 -12 363 27 391 81 L391 0 L570 0 L570 523 L391 523 L391 222 C391 155 356 123 302 123 C251 123 228 152 228 211 L228 523 L49 523 L49 182 C49 50 124 -12 225 -12 L225 -12 Z " />
<glyph glyph-name="ucircumflex" unicode="&#xfb;" horiz-adv-x="623" d="M125 585 L248 585 L308 641 L369 585 L494 585 L376 748 L248 748 L125 585 Z M225 -12 C312 -12 363 27 391 81 L391 0 L570 0 L570 523 L391 523 L391 222 C391 155 356 123 302 123 C251 123 228 152 228 211 L228 523 L49 523 L49 182 C49 50 124 -12 225 -12 L225 -12 Z " />
<glyph glyph-name="udieresis" unicode="&#xfc;" horiz-adv-x="623" d="M203 580 C251 580 289 617 289 663 C289 709 251 747 203 747 C156 747 118 709 118 663 C118 617 156 580 203 580 L203 580 Z M416 580 C464 580 502 617 502 663 C502 709 464 747 416 747 C368 747 331 709 331 663 C331 617 368 580 416 580 L416 580 Z M225 -12 C312 -12 363 27 391 81 L391 0 L570 0 L570 523 L391 523 L391 222 C391 155 356 123 302 123 C251 123 228 152 228 211 L228 523 L49 523 L49 182 C49 50 124 -12 225 -12 L225 -12 Z " />
<glyph glyph-name="yacute" unicode="&#xfd;" horiz-adv-x="589" d="M130 -175 L301 -175 L581 523 L410 523 L310 244 L202 523 L8 523 L217 53 L130 -175 Z M236 583 L364 583 L469 749 L289 749 L236 583 Z " />
<glyph glyph-name="thorn" unicode="&#xfe;" horiz-adv-x="643" d="M53 -175 L232 -175 L232 77 C258 25 315 -12 394 -12 C517 -12 616 78 616 258 L616 266 C616 445 517 537 395 537 C316 537 262 495 232 445 L232 753 L53 753 L53 -175 Z M331 125 C266 125 227 170 227 259 L227 267 C227 355 266 402 331 402 C394 402 434 358 434 266 L434 258 C434 172 398 125 331 125 L331 125 Z " />
<glyph glyph-name="ydieresis" unicode="&#xff;" horiz-adv-x="589" d="M130 -175 L301 -175 L581 523 L410 523 L310 244 L202 523 L8 523 L217 53 L130 -175 Z M198 580 C246 580 284 617 284 663 C284 709 246 747 198 747 C151 747 113 709 113 663 C113 617 151 580 198 580 L198 580 Z M411 580 C459 580 497 617 497 663 C497 709 459 747 411 747 C363 747 326 709 326 663 C326 617 363 580 411 580 L411 580 Z " />
<glyph glyph-name="Amacron" unicode="&#x100;" horiz-adv-x="747" d="M13 0 L204 0 L242 133 L479 133 L517 0 L734 0 L507 715 L242 715 L13 0 Z M210 771 L532 771 L532 878 L210 878 L210 771 Z M361 549 L439 274 L282 274 L361 549 Z " />
<glyph glyph-name="amacron" unicode="&#x101;" horiz-adv-x="578" d="M200 -12 C284 -12 330 23 355 61 L355 0 L529 0 L529 339 C529 478 437 537 293 537 C150 537 51 475 43 349 L211 349 C215 382 233 411 282 411 C339 411 351 378 351 328 L351 316 L301 316 C127 316 23 268 23 145 C23 34 106 -12 200 -12 L200 -12 Z M262 109 C220 109 200 128 200 158 C200 201 232 215 304 215 L351 215 L351 183 C351 138 313 109 262 109 L262 109 Z M137 612 L444 612 L444 712 L137 712 L137 612 Z " />
<glyph glyph-name="Abreve" unicode="&#x102;" horiz-adv-x="747" d="M13 0 L204 0 L242 133 L479 133 L517 0 L734 0 L507 715 L242 715 L13 0 Z M370 752 C465 752 529 810 537 905 L422 905 C418 877 399 859 370 859 C341 859 324 877 321 905 L205 905 C211 810 272 752 370 752 L370 752 Z M361 549 L439 274 L282 274 L361 549 Z " />
<glyph glyph-name="abreve" unicode="&#x103;" horiz-adv-x="578" d="M200 -12 C284 -12 330 23 355 61 L355 0 L529 0 L529 339 C529 478 437 537 293 537 C150 537 51 475 43 349 L211 349 C215 382 233 411 282 411 C339 411 351 378 351 328 L351 316 L301 316 C127 316 23 268 23 145 C23 34 106 -12 200 -12 L200 -12 Z M262 109 C220 109 200 128 200 158 C200 201 232 215 304 215 L351 215 L351 183 C351 138 313 109 262 109 L262 109 Z M290 587 C383 587 449 644 455 745 L344 745 C341 716 322 697 290 697 C258 697 241 715 238 745 L127 745 C132 644 195 587 290 587 L290 587 Z " />
<glyph glyph-name="Aogonek" unicode="&#x104;" horiz-adv-x="747" d="M636 -182 C678 -182 709 -174 727 -166 L727 -81 C718 -84 709 -86 697 -86 C678 -86 668 -76 668 -60 C668 -38 689 -10 729 14 L507 715 L242 715 L13 0 L204 0 L242 133 L479 133 L517 0 L598 0 C556 -21 513 -52 513 -101 C513 -150 559 -182 636 -182 L636 -182 Z M361 549 L439 274 L282 274 L361 549 Z " />
<glyph glyph-name="aogonek" unicode="&#x105;" horiz-adv-x="578" d="M443 -182 C487 -182 515 -174 533 -166 L533 -86 C524 -89 515 -91 503 -91 C484 -91 473 -82 473 -63 C473 -41 488 -18 529 11 L529 339 C529 478 437 537 293 537 C150 537 51 475 43 349 L211 349 C215 382 233 411 282 411 C339 411 351 378 351 328 L351 316 L301 316 C127 316 23 268 23 145 C23 34 106 -12 200 -12 C284 -12 330 23 355 61 L355 0 L413 0 C370 -20 327 -51 327 -102 C327 -152 372 -182 443 -182 L443 -182 Z M262 109 C220 109 200 128 200 158 C200 201 232 215 304 215 L351 215 L351 183 C351 138 313 109 262 109 L262 109 Z " />
<glyph glyph-name="Cacute" unicode="&#x106;" horiz-adv-x="759" d="M405 -12 C590 -12 724 84 738 269 L534 269 C524 190 473 152 401 152 C303 152 248 225 248 354 L248 362 C248 492 306 564 398 564 C470 564 510 524 518 451 L729 451 C712 640 583 726 397 726 C188 726 32 581 32 361 L32 353 C32 134 155 -12 405 -12 L405 -12 Z M319 759 L454 759 L557 905 L370 905 L319 759 Z " />
<glyph glyph-name="cacute" unicode="&#x107;" horiz-adv-x="583" d="M230 583 L358 583 L463 749 L283 749 L230 583 Z M300 -12 C469 -12 558 74 563 206 L402 206 C396 149 361 119 311 119 C243 119 208 166 208 257 L208 265 C208 353 245 398 308 398 C360 398 384 371 392 322 L560 322 C550 481 432 537 304 537 C150 537 25 437 25 263 L25 255 C25 79 144 -12 300 -12 L300 -12 Z " />
<glyph glyph-name="Ccircumflex" unicode="&#x108;" horiz-adv-x="759" d="M208 759 L335 759 L393 808 L452 759 L582 759 L472 905 L322 905 L208 759 Z M405 -12 C590 -12 724 84 738 269 L534 269 C524 190 473 152 401 152 C303 152 248 225 248 354 L248 362 C248 492 306 564 398 564 C470 564 510 524 518 451 L729 451 C712 640 583 726 397 726 C188 726 32 581 32 361 L32 353 C32 134 155 -12 405 -12 L405 -12 Z " />
<glyph glyph-name="ccircumflex" unicode="&#x109;" horiz-adv-x="583" d="M114 585 L237 585 L297 641 L358 585 L483 585 L365 748 L237 748 L114 585 Z M300 -12 C469 -12 558 74 563 206 L402 206 C396 149 361 119 311 119 C243 119 208 166 208 257 L208 265 C208 353 245 398 308 398 C360 398 384 371 392 322 L560 322 C550 481 432 537 304 537 C150 537 25 437 25 263 L25 255 C25 79 144 -12 300 -12 L300 -12 Z " />
<glyph glyph-name="Cdotaccent" unicode="&#x10a;" horiz-adv-x="759" d="M405 -12 C590 -12 724 84 738 269 L534 269 C524 190 473 152 401 152 C303 152 248 225 248 354 L248 362 C248 492 306 564 398 564 C470 564 510 524 518 451 L729 451 C712 640 583 726 397 726 C188 726 32 581 32 361 L32 353 C32 134 155 -12 405 -12 L405 -12 Z M394 757 C448 757 489 795 489 847 C489 898 448 936 394 936 C340 936 299 898 299 847 C299 795 340 757 394 757 L394 757 Z " />
<glyph glyph-name="cdotaccent" unicode="&#x10b;" horiz-adv-x="583" d="M300 -12 C469 -12 558 74 563 206 L402 206 C396 149 361 119 311 119 C243 119 208 166 208 257 L208 265 C208 353 245 398 308 398 C360 398 384 371 392 322 L560 322 C550 481 432 537 304 537 C150 537 25 437 25 263 L25 255 C25 79 144 -12 300 -12 L300 -12 Z M302 579 C356 579 397 617 397 669 C397 720 356 758 302 758 C247 758 206 720 206 669 C206 617 247 579 302 579 L302 579 Z " />
<glyph glyph-name="Ccaron" unicode="&#x10c;" horiz-adv-x="759" d="M317 759 L467 759 L581 905 L454 905 L395 856 L337 905 L207 905 L317 759 Z M405 -12 C590 -12 724 84 738 269 L534 269 C524 190 473 152 401 152 C303 152 248 225 248 354 L248 362 C248 492 306 564 398 564 C470 564 510 524 518 451 L729 451 C712 640 583 726 397 726 C188 726 32 581 32 361 L32 353 C32 134 155 -12 405 -12 L405 -12 Z " />
<glyph glyph-name="ccaron" unicode="&#x10d;" horiz-adv-x="583" d="M233 585 L360 585 L483 748 L361 748 L300 692 L239 748 L114 748 L233 585 Z M300 -12 C469 -12 558 74 563 206 L402 206 C396 149 361 119 311 119 C243 119 208 166 208 257 L208 265 C208 353 245 398 308 398 C360 398 384 371 392 322 L560 322 C550 481 432 537 304 537 C150 537 25 437 25 263 L25 255 C25 79 144 -12 300 -12 L300 -12 Z " />
<glyph glyph-name="Dcaron" unicode="&#x10e;" horiz-adv-x="743" d="M259 759 L409 759 L523 905 L396 905 L337 856 L279 905 L149 905 L259 759 Z M275 158 L275 557 L320 557 C444 557 498 499 498 363 L498 355 C498 222 444 158 322 158 L275 158 Z M69 0 L328 0 C580 0 712 135 712 358 L712 366 C712 588 583 715 329 715 L69 715 L69 0 Z " />
<glyph glyph-name="dcaron" unicode="&#x10f;" horiz-adv-x="642" d="M625 579 L718 579 L767 753 L634 753 L625 579 Z M247 -12 C326 -12 384 31 410 85 L410 0 L589 0 L589 753 L410 753 L410 449 C380 502 331 537 249 537 C125 537 27 442 27 264 L27 256 C27 75 126 -12 247 -12 L247 -12 Z M310 125 C248 125 209 170 209 258 L209 266 C209 357 245 402 312 402 C378 402 415 355 415 267 L415 259 C415 170 375 125 310 125 L310 125 Z " />
<glyph glyph-name="Dcroat" unicode="&#x110;" horiz-adv-x="774" d="M29 290 L88 290 L88 0 L347 0 C599 0 730 135 730 358 L730 366 C730 588 602 715 347 715 L88 715 L88 428 L29 428 L29 290 Z M289 158 L289 290 L409 290 L409 428 L289 428 L289 557 L339 557 C463 557 516 499 516 363 L516 355 C516 222 462 158 341 158 L289 158 Z " />
<glyph glyph-name="dcroat" unicode="&#x111;" horiz-adv-x="642" d="M255 587 L410 587 L410 449 C380 502 331 537 249 537 C125 537 27 442 27 264 L27 256 C27 75 126 -12 247 -12 C326 -12 384 31 410 85 L410 0 L589 0 L589 587 L646 587 L646 683 L589 683 L589 753 L410 753 L410 683 L255 683 L255 587 Z M310 125 C248 125 209 170 209 258 L209 266 C209 357 245 402 312 402 C378 402 415 355 415 267 L415 259 C415 170 375 125 310 125 L310 125 Z " />
<glyph glyph-name="Emacron" unicode="&#x112;" horiz-adv-x="612" d="M69 0 L579 0 L579 158 L273 158 L273 288 L504 288 L504 434 L273 434 L273 557 L563 557 L563 715 L69 715 L69 0 Z M162 771 L484 771 L484 878 L162 878 L162 771 Z " />
<glyph glyph-name="emacron" unicode="&#x113;" horiz-adv-x="598" d="M309 -12 C467 -12 558 55 574 173 L406 173 C399 138 374 111 315 111 C251 111 211 151 206 220 L574 220 L574 267 C574 455 451 537 308 537 C150 537 25 431 25 263 L25 255 C25 84 145 -12 309 -12 L309 -12 Z M208 321 C217 384 254 419 308 419 C366 419 397 384 400 321 L208 321 Z M149 612 L456 612 L456 712 L149 712 L149 612 Z " />
<glyph glyph-name="Ebreve" unicode="&#x114;" horiz-adv-x="612" d="M69 0 L579 0 L579 158 L273 158 L273 288 L504 288 L504 434 L273 434 L273 557 L563 557 L563 715 L69 715 L69 0 Z M322 752 C417 752 481 810 489 905 L374 905 C370 877 351 859 322 859 C293 859 276 877 273 905 L157 905 C163 810 224 752 322 752 L322 752 Z " />
<glyph glyph-name="ebreve" unicode="&#x115;" horiz-adv-x="598" d="M309 -12 C467 -12 558 55 574 173 L406 173 C399 138 374 111 315 111 C251 111 211 151 206 220 L574 220 L574 267 C574 455 451 537 308 537 C150 537 25 431 25 263 L25 255 C25 84 145 -12 309 -12 L309 -12 Z M208 321 C217 384 254 419 308 419 C366 419 397 384 400 321 L208 321 Z M297 587 C390 587 456 644 462 745 L351 745 C348 716 329 697 297 697 C265 697 248 715 245 745 L134 745 C139 644 202 587 297 587 L297 587 Z " />
<glyph glyph-name="Edotaccent" unicode="&#x116;" horiz-adv-x="612" d="M324 757 C378 757 419 795 419 847 C419 898 378 936 324 936 C270 936 229 898 229 847 C229 795 270 757 324 757 L324 757 Z M69 0 L579 0 L579 158 L273 158 L273 288 L504 288 L504 434 L273 434 L273 557 L563 557 L563 715 L69 715 L69 0 Z " />
<glyph glyph-name="edotaccent" unicode="&#x117;" horiz-adv-x="598" d="M309 -12 C467 -12 558 55 574 173 L406 173 C399 138 374 111 315 111 C251 111 211 151 206 220 L574 220 L574 267 C574 455 451 537 308 537 C150 537 25 431 25 263 L25 255 C25 84 145 -12 309 -12 L309 -12 Z M208 321 C217 384 254 419 308 419 C366 419 397 384 400 321 L208 321 Z M304 579 C358 579 399 617 399 669 C399 720 358 758 304 758 C249 758 208 720 208 669 C208 617 249 579 304 579 L304 579 Z " />
<glyph glyph-name="Eogonek" unicode="&#x118;" horiz-adv-x="612" d="M467 -182 C511 -182 542 -174 559 -166 L559 -81 C551 -84 541 -86 530 -86 C511 -86 500 -76 500 -60 C500 -38 514 -22 541 0 L579 0 L579 158 L273 158 L273 288 L504 288 L504 434 L273 434 L273 557 L563 557 L563 715 L69 715 L69 0 L431 0 C389 -21 345 -52 345 -101 C345 -150 392 -182 467 -182 L467 -182 Z " />
<glyph glyph-name="eogonek" unicode="&#x119;" horiz-adv-x="598" d="M405 -182 C452 -182 475 -174 493 -166 L493 -86 C484 -89 475 -91 463 -91 C444 -91 432 -82 432 -63 C432 -33 460 -4 503 38 C531 66 565 106 574 173 L406 173 C399 138 374 111 315 111 C251 111 211 151 206 220 L574 220 L574 267 C574 455 451 537 308 537 C150 537 25 431 25 263 L25 255 C25 84 145 -12 309 -12 C327 -12 352 -11 369 -8 C329 -31 287 -61 287 -103 C287 -153 334 -182 405 -182 L405 -182 Z M208 321 C217 384 254 419 308 419 C366 419 397 384 400 321 L208 321 Z " />
<glyph glyph-name="Ecaron" unicode="&#x11a;" horiz-adv-x="612" d="M247 759 L397 759 L511 905 L384 905 L325 856 L267 905 L137 905 L247 759 Z M69 0 L579 0 L579 158 L273 158 L273 288 L504 288 L504 434 L273 434 L273 557 L563 557 L563 715 L69 715 L69 0 Z " />
<glyph glyph-name="ecaron" unicode="&#x11b;" horiz-adv-x="598" d="M237 585 L364 585 L487 748 L365 748 L304 692 L243 748 L118 748 L237 585 Z M309 -12 C467 -12 558 55 574 173 L406 173 C399 138 374 111 315 111 C251 111 211 151 206 220 L574 220 L574 267 C574 455 451 537 308 537 C150 537 25 431 25 263 L25 255 C25 84 145 -12 309 -12 L309 -12 Z M208 321 C217 384 254 419 308 419 C366 419 397 384 400 321 L208 321 Z " />
<glyph glyph-name="Gcircumflex" unicode="&#x11c;" horiz-adv-x="787" d="M406 -12 C637 -12 756 125 756 307 L756 395 L420 395 L420 252 L554 252 C550 195 512 144 412 144 C288 144 245 234 245 350 L245 358 C245 487 306 565 407 565 C483 565 526 530 536 463 L739 463 C725 649 575 726 406 726 C191 726 31 579 31 361 L31 353 C31 139 163 -12 406 -12 L406 -12 Z M216 759 L343 759 L401 808 L460 759 L590 759 L480 905 L330 905 L216 759 Z " />
<glyph glyph-name="gcircumflex" unicode="&#x11d;" horiz-adv-x="641" d="M120 585 L243 585 L303 641 L364 585 L489 585 L371 748 L243 748 L120 585 Z M298 -194 C485 -194 588 -112 588 44 L588 523 L409 523 L409 449 C379 502 330 537 247 537 C124 537 25 439 25 285 L25 277 C25 116 125 26 247 26 C325 26 382 72 409 122 L409 42 C409 -23 377 -68 298 -68 C233 -68 210 -38 202 0 L24 0 C38 -119 120 -194 298 -194 L298 -194 Z M310 158 C246 158 208 204 208 276 L208 284 C208 356 244 403 311 403 C377 403 414 357 414 285 L414 278 C414 204 374 158 310 158 L310 158 Z " />
<glyph glyph-name="Gbreve" unicode="&#x11e;" horiz-adv-x="787" d="M406 -12 C637 -12 756 125 756 307 L756 395 L420 395 L420 252 L554 252 C550 195 512 144 412 144 C288 144 245 234 245 350 L245 358 C245 487 306 565 407 565 C483 565 526 530 536 463 L739 463 C725 649 575 726 406 726 C191 726 31 579 31 361 L31 353 C31 139 163 -12 406 -12 L406 -12 Z M402 752 C497 752 561 810 569 905 L454 905 C450 877 431 859 402 859 C373 859 356 877 353 905 L237 905 C243 810 304 752 402 752 L402 752 Z " />
<glyph glyph-name="gbreve" unicode="&#x11f;" horiz-adv-x="641" d="M298 -194 C485 -194 588 -112 588 44 L588 523 L409 523 L409 449 C379 502 330 537 247 537 C124 537 25 439 25 285 L25 277 C25 116 125 26 247 26 C325 26 382 72 409 122 L409 42 C409 -23 377 -68 298 -68 C233 -68 210 -38 202 0 L24 0 C38 -119 120 -194 298 -194 L298 -194 Z M310 158 C246 158 208 204 208 276 L208 284 C208 356 244 403 311 403 C377 403 414 357 414 285 L414 278 C414 204 374 158 310 158 L310 158 Z M304 587 C397 587 463 644 469 745 L358 745 C355 716 336 697 304 697 C272 697 255 715 252 745 L141 745 C146 644 209 587 304 587 L304 587 Z " />
<glyph glyph-name="Gdotaccent" unicode="&#x120;" horiz-adv-x="787" d="M406 -12 C637 -12 756 125 756 307 L756 395 L420 395 L420 252 L554 252 C550 195 512 144 412 144 C288 144 245 234 245 350 L245 358 C245 487 306 565 407 565 C483 565 526 530 536 463 L739 463 C725 649 575 726 406 726 C191 726 31 579 31 361 L31 353 C31 139 163 -12 406 -12 L406 -12 Z M404 757 C458 757 499 795 499 847 C499 898 458 936 404 936 C350 936 309 898 309 847 C309 795 350 757 404 757 L404 757 Z " />
<glyph glyph-name="gdotaccent" unicode="&#x121;" horiz-adv-x="641" d="M298 -194 C485 -194 588 -112 588 44 L588 523 L409 523 L409 449 C379 502 330 537 247 537 C124 537 25 439 25 285 L25 277 C25 116 125 26 247 26 C325 26 382 72 409 122 L409 42 C409 -23 377 -68 298 -68 C233 -68 210 -38 202 0 L24 0 C38 -119 120 -194 298 -194 L298 -194 Z M310 158 C246 158 208 204 208 276 L208 284 C208 356 244 403 311 403 C377 403 414 357 414 285 L414 278 C414 204 374 158 310 158 L310 158 Z M305 579 C359 579 400 617 400 669 C400 720 359 758 305 758 C250 758 209 720 209 669 C209 617 250 579 305 579 L305 579 Z " />
<glyph glyph-name="Gcommaaccent" unicode="&#x122;" horiz-adv-x="787" d="M406 -12 C637 -12 756 125 756 307 L756 395 L420 395 L420 252 L554 252 C550 195 512 144 412 144 C288 144 245 234 245 350 L245 358 C245 487 306 565 407 565 C483 565 526 530 536 463 L739 463 C725 649 575 726 406 726 C191 726 31 579 31 361 L31 353 C31 139 163 -12 406 -12 L406 -12 Z M388 -232 L487 -47 L329 -28 L287 -205 L388 -232 Z " />
<glyph glyph-name="gcommaaccent" unicode="&#x123;" horiz-adv-x="641" d="M388 566 L430 743 L329 770 L230 585 L388 566 Z M298 -194 C485 -194 588 -112 588 44 L588 523 L409 523 L409 449 C379 502 330 537 247 537 C124 537 25 439 25 285 L25 277 C25 116 125 26 247 26 C325 26 382 72 409 122 L409 42 C409 -23 377 -68 298 -68 C233 -68 210 -38 202 0 L24 0 C38 -119 120 -194 298 -194 L298 -194 Z M310 158 C246 158 208 204 208 276 L208 284 C208 356 244 403 311 403 C377 403 414 357 414 285 L414 278 C414 204 374 158 310 158 L310 158 Z " />
<glyph glyph-name="Hcircumflex" unicode="&#x124;" horiz-adv-x="784" d="M69 0 L275 0 L275 282 L510 282 L510 0 L715 0 L715 715 L510 715 L510 442 L275 442 L275 715 L69 715 L69 0 Z M205 759 L332 759 L390 808 L449 759 L579 759 L469 905 L319 905 L205 759 Z " />
<glyph glyph-name="hcircumflex" unicode="&#x125;" horiz-adv-x="624" d="M53 0 L232 0 L232 293 C232 360 268 392 321 392 C373 392 396 363 396 304 L396 0 L575 0 L575 340 C575 474 505 537 404 537 C317 537 260 493 232 439 L232 753 L53 753 L53 0 Z " />
<glyph glyph-name="Hbar" unicode="&#x126;" horiz-adv-x="784" d="M9 521 L69 521 L69 0 L275 0 L275 282 L510 282 L510 0 L715 0 L715 521 L775 521 L775 617 L715 617 L715 715 L510 715 L510 617 L275 617 L275 715 L69 715 L69 617 L9 617 L9 521 Z M275 442 L275 521 L510 521 L510 442 L275 442 Z " />
<glyph glyph-name="hbar" unicode="&#x127;" horiz-adv-x="624" d="M-4 587 L53 587 L53 0 L232 0 L232 293 C232 360 268 392 321 392 C373 392 396 363 396 304 L396 0 L575 0 L575 340 C575 474 505 537 404 537 C317 537 260 493 232 439 L232 587 L387 587 L387 683 L232 683 L232 753 L53 753 L53 683 L-4 683 L-4 587 Z " />
<glyph glyph-name="Itilde" unicode="&#x128;" horiz-adv-x="352" d="M73 0 L280 0 L280 715 L73 715 L73 0 Z M242 758 C302 758 358 806 365 911 L264 911 C260 892 250 879 232 879 C199 879 165 912 111 912 C49 912 -4 864 -11 759 L91 759 C94 778 106 792 122 792 C153 792 185 758 242 758 L242 758 Z " />
<glyph glyph-name="itilde" unicode="&#x129;" horiz-adv-x="295" d="M58 0 L237 0 L237 523 L58 523 L58 0 Z M212 587 C272 587 322 638 330 742 L233 742 C229 723 219 710 201 710 C168 710 136 744 82 744 C20 744 -26 693 -33 588 L64 588 C67 607 79 620 95 620 C126 620 156 587 212 587 L212 587 Z " />
<glyph glyph-name="Imacron" unicode="&#x12a;" horiz-adv-x="352" d="M73 0 L280 0 L280 715 L73 715 L73 0 Z M15 771 L337 771 L337 878 L15 878 L15 771 Z " />
<glyph glyph-name="imacron" unicode="&#x12b;" horiz-adv-x="295" d="M25 612 L270 612 L270 712 L25 712 L25 612 Z M58 0 L237 0 L237 523 L58 523 L58 0 Z " />
<glyph glyph-name="Ibreve" unicode="&#x12c;" horiz-adv-x="352" d="M73 0 L280 0 L280 715 L73 715 L73 0 Z M176 752 C271 752 335 810 343 905 L228 905 C224 877 205 859 176 859 C147 859 130 877 127 905 L11 905 C17 810 78 752 176 752 L176 752 Z " />
<glyph glyph-name="ibreve" unicode="&#x12d;" horiz-adv-x="295" d="M58 0 L237 0 L237 523 L58 523 L58 0 Z M147 587 C240 587 306 644 312 745 L201 745 C198 716 179 697 147 697 C115 697 98 715 95 745 L-16 745 C-11 644 52 587 147 587 L147 587 Z " />
<glyph glyph-name="Iogonek" unicode="&#x12e;" horiz-adv-x="352" d="M193 -182 C236 -182 266 -174 284 -166 L284 -81 C276 -84 266 -86 255 -86 C236 -86 225 -76 225 -60 C225 -37 245 -12 280 12 L280 715 L73 715 L73 0 L155 0 C114 -21 70 -52 70 -101 C70 -150 117 -182 193 -182 L193 -182 Z " />
<glyph glyph-name="iogonek" unicode="&#x12f;" horiz-adv-x="295" d="M154 -182 C201 -182 226 -174 244 -166 L244 -86 C235 -89 226 -91 214 -91 C195 -91 183 -82 183 -63 C183 -41 197 -20 237 9 L237 523 L58 523 L58 0 L124 0 C81 -20 38 -50 38 -101 C38 -151 83 -182 154 -182 L154 -182 Z M147 573 C203 573 246 612 246 665 C246 718 203 758 147 758 C91 758 49 718 49 665 C49 612 91 573 147 573 L147 573 Z " />
<glyph glyph-name="Idotaccent" unicode="&#x130;" horiz-adv-x="352" d="M73 0 L280 0 L280 715 L73 715 L73 0 Z M177 757 C231 757 272 795 272 847 C272 898 231 936 177 936 C123 936 82 898 82 847 C82 795 123 757 177 757 L177 757 Z " />
<glyph glyph-name="dotlessi" unicode="&#x131;" horiz-adv-x="295" d="M58 0 L237 0 L237 523 L58 523 L58 0 Z " />
<glyph glyph-name="IJ" unicode="&#x132;" horiz-adv-x="804" d="M73 0 L280 0 L280 715 L73 715 L73 0 Z M488 -9 C656 -9 744 79 744 251 L744 715 L538 715 L538 253 C538 179 501 154 445 154 C404 154 382 160 358 168 L358 15 C387 1 421 -9 488 -9 L488 -9 Z " />
<glyph glyph-name="ij" unicode="&#x133;" horiz-adv-x="591" d="M58 0 L237 0 L237 523 L58 523 L58 0 Z M147 573 C203 573 246 612 246 665 C246 718 203 758 147 758 C91 758 49 718 49 665 C49 612 91 573 147 573 L147 573 Z M289 -184 C478 -184 531 -109 531 4 L531 523 L353 523 L353 8 C353 -33 333 -51 289 -54 L289 -184 Z M442 573 C498 573 541 612 541 665 C541 718 498 758 442 758 C386 758 344 718 344 665 C344 612 386 573 442 573 L442 573 Z " />
<glyph glyph-name="Jcircumflex" unicode="&#x134;" horiz-adv-x="478" d="M128 759 L255 759 L313 808 L372 759 L502 759 L392 905 L242 905 L128 759 Z M163 -9 C331 -9 419 79 419 251 L419 715 L213 715 L213 253 C213 179 176 154 120 154 C79 154 57 160 33 168 L33 15 C62 1 96 -9 163 -9 L163 -9 Z " />
<glyph glyph-name="jcircumflex" unicode="&#x135;" horiz-adv-x="295" d="M-6 -184 C183 -184 236 -109 236 4 L236 523 L58 523 L58 8 C58 -33 38 -51 -6 -54 L-6 -184 Z M-38 585 L85 585 L145 641 L206 585 L331 585 L213 748 L85 748 L-38 585 Z " />
<glyph glyph-name="Kcommaaccent" unicode="&#x136;" horiz-adv-x="726" d="M69 0 L275 0 L275 299 L481 0 L718 0 L442 383 L704 715 L490 715 L275 432 L275 715 L69 715 L69 0 Z M358 -232 L457 -47 L299 -28 L257 -205 L358 -232 Z " />
<glyph glyph-name="kcommaaccent" unicode="&#x137;" horiz-adv-x="577" d="M53 0 L232 0 L232 229 L373 0 L573 0 L388 288 L559 523 L373 523 L232 316 L232 753 L53 753 L53 0 Z M286 -232 L385 -47 L227 -28 L185 -205 L286 -232 Z " />
<glyph glyph-name="Lacute" unicode="&#x139;" horiz-adv-x="575" d="M99 759 L234 759 L337 905 L150 905 L99 759 Z M69 0 L545 0 L545 159 L275 159 L275 715 L69 715 L69 0 Z " />
<glyph glyph-name="lacute" unicode="&#x13a;" horiz-adv-x="294" d="M58 0 L236 0 L236 753 L58 753 L58 0 Z " />
<glyph glyph-name="Lcommaaccent" unicode="&#x13b;" horiz-adv-x="575" d="M289 -232 L388 -47 L230 -28 L188 -205 L289 -232 Z M69 0 L545 0 L545 159 L275 159 L275 715 L69 715 L69 0 Z " />
<glyph glyph-name="lcommaaccent" unicode="&#x13c;" horiz-adv-x="294" d="M133 -232 L232 -47 L74 -28 L32 -205 L133 -232 Z M58 0 L236 0 L236 753 L58 753 L58 0 Z " />
<glyph glyph-name="Lcaron" unicode="&#x13d;" horiz-adv-x="575" d="M344 539 L447 539 L508 715 L360 715 L344 539 Z M69 0 L545 0 L545 159 L275 159 L275 715 L69 715 L69 0 Z " />
<glyph glyph-name="lcaron" unicode="&#x13e;" horiz-adv-x="294" d="M272 579 L365 579 L414 753 L281 753 L272 579 Z M58 0 L236 0 L236 753 L58 753 L58 0 Z " />
<glyph glyph-name="Ldot" unicode="&#x13f;" horiz-adv-x="601" d="M69 0 L545 0 L545 159 L275 159 L275 715 L69 715 L69 0 Z M474 299 C534 299 579 344 579 400 C579 456 534 501 474 501 C415 501 372 456 372 400 C372 344 415 299 474 299 L474 299 Z " />
<glyph glyph-name="ldot" unicode="&#x140;" horiz-adv-x="455" d="M58 0 L236 0 L236 753 L58 753 L58 0 Z M372 258 C432 258 477 303 477 359 C477 415 432 460 372 460 C313 460 270 415 270 359 C270 303 313 258 372 258 L372 258 Z " />
<glyph glyph-name="Lslash" unicode="&#x141;" horiz-adv-x="593" d="M25 229 L88 251 L88 0 L564 0 L564 159 L293 159 L293 322 L473 384 L473 493 L293 430 L293 715 L88 715 L88 359 L25 337 L25 229 Z " />
<glyph glyph-name="lslash" unicode="&#x142;" horiz-adv-x="333" d="M17 261 L78 290 L78 0 L256 0 L256 376 L320 407 L320 523 L256 492 L256 753 L78 753 L78 405 L17 376 L17 261 Z " />
<glyph glyph-name="Nacute" unicode="&#x143;" horiz-adv-x="777" d="M330 759 L465 759 L568 905 L381 905 L330 759 Z M69 0 L249 0 L249 449 L510 0 L708 0 L708 715 L529 715 L529 312 L300 715 L69 715 L69 0 Z " />
<glyph glyph-name="nacute" unicode="&#x144;" horiz-adv-x="624" d="M244 583 L372 583 L477 749 L297 749 L244 583 Z M53 0 L232 0 L232 293 C232 360 268 392 321 392 C373 392 396 363 396 304 L396 0 L575 0 L575 340 C575 474 505 537 404 537 C317 537 260 493 232 439 L232 523 L53 523 L53 0 Z " />
<glyph glyph-name="Ncommaaccent" unicode="&#x145;" horiz-adv-x="777" d="M369 -232 L468 -47 L310 -28 L268 -205 L369 -232 Z M69 0 L249 0 L249 449 L510 0 L708 0 L708 715 L529 715 L529 312 L300 715 L69 715 L69 0 Z " />
<glyph glyph-name="ncommaaccent" unicode="&#x146;" horiz-adv-x="624" d="M298 -232 L397 -47 L239 -28 L197 -205 L298 -232 Z M53 0 L232 0 L232 293 C232 360 268 392 321 392 C373 392 396 363 396 304 L396 0 L575 0 L575 340 C575 474 505 537 404 537 C317 537 260 493 232 439 L232 523 L53 523 L53 0 Z " />
<glyph glyph-name="Ncaron" unicode="&#x147;" horiz-adv-x="777" d="M328 759 L478 759 L592 905 L465 905 L406 856 L348 905 L218 905 L328 759 Z M69 0 L249 0 L249 449 L510 0 L708 0 L708 715 L529 715 L529 312 L300 715 L69 715 L69 0 Z " />
<glyph glyph-name="ncaron" unicode="&#x148;" horiz-adv-x="624" d="M247 585 L374 585 L497 748 L375 748 L314 692 L253 748 L128 748 L247 585 Z M53 0 L232 0 L232 293 C232 360 268 392 321 392 C373 392 396 363 396 304 L396 0 L575 0 L575 340 C575 474 505 537 404 537 C317 537 260 493 232 439 L232 523 L53 523 L53 0 Z " />
<glyph glyph-name="napostrophe" unicode="&#x149;" horiz-adv-x="743" d="M70 428 L207 675 L49 728 L-31 467 L70 428 Z M171 0 L350 0 L350 293 C350 360 386 392 439 392 C491 392 514 363 514 304 L514 0 L693 0 L693 340 C693 474 623 537 522 537 C435 537 378 493 350 439 L350 523 L171 523 L171 0 Z " />
<glyph glyph-name="Eng" unicode="&#x14a;" horiz-adv-x="777" d="M467 -192 C626 -192 708 -107 708 23 L708 715 L524 715 L524 303 L303 715 L69 715 L69 0 L254 0 L254 466 L503 16 C496 -21 465 -38 422 -38 C385 -38 367 -32 344 -24 L344 -169 C373 -183 404 -192 467 -192 L467 -192 Z " />
<glyph glyph-name="eng" unicode="&#x14b;" horiz-adv-x="624" d="M333 -184 C522 -184 575 -109 575 4 L575 340 C575 474 505 537 404 537 C317 537 260 493 232 439 L232 523 L53 523 L53 0 L232 0 L232 293 C232 360 268 392 321 392 C373 392 396 363 396 304 L396 8 C396 -33 377 -51 333 -54 L333 -184 Z " />
<glyph glyph-name="Omacron" unicode="&#x14c;" horiz-adv-x="819" d="M247 771 L569 771 L569 878 L247 878 L247 771 Z M410 149 C311 149 245 224 245 354 L245 362 C245 492 308 565 409 565 C510 565 574 490 574 363 L574 355 C574 227 511 149 410 149 L410 149 Z M406 -12 C637 -12 788 138 788 358 L788 366 C788 588 627 725 409 725 C195 725 31 579 31 361 L31 353 C31 138 175 -12 406 -12 L406 -12 Z " />
<glyph glyph-name="omacron" unicode="&#x14d;" horiz-adv-x="622" d="M157 612 L464 612 L464 712 L157 712 L157 612 Z M312 121 C243 121 208 170 208 260 L208 268 C208 356 245 403 312 403 C380 403 415 354 415 266 L415 258 C415 171 379 121 312 121 L312 121 Z M311 -12 C472 -12 597 90 597 260 L597 268 C597 434 473 537 312 537 C150 537 25 431 25 263 L25 255 C25 86 150 -12 311 -12 L311 -12 Z " />
<glyph glyph-name="Obreve" unicode="&#x14e;" horiz-adv-x="819" d="M407 752 C502 752 566 810 574 905 L459 905 C455 877 436 859 407 859 C378 859 361 877 358 905 L242 905 C248 810 309 752 407 752 L407 752 Z M410 149 C311 149 245 224 245 354 L245 362 C245 492 308 565 409 565 C510 565 574 490 574 363 L574 355 C574 227 511 149 410 149 L410 149 Z M406 -12 C637 -12 788 138 788 358 L788 366 C788 588 627 725 409 725 C195 725 31 579 31 361 L31 353 C31 138 175 -12 406 -12 L406 -12 Z " />
<glyph glyph-name="obreve" unicode="&#x14f;" horiz-adv-x="622" d="M312 121 C243 121 208 170 208 260 L208 268 C208 356 245 403 312 403 C380 403 415 354 415 266 L415 258 C415 171 379 121 312 121 L312 121 Z M311 -12 C472 -12 597 90 597 260 L597 268 C597 434 473 537 312 537 C150 537 25 431 25 263 L25 255 C25 86 150 -12 311 -12 L311 -12 Z M310 587 C403 587 469 644 475 745 L364 745 C361 716 342 697 310 697 C278 697 261 715 258 745 L147 745 C152 644 215 587 310 587 L310 587 Z " />
<glyph glyph-name="Ohungarumlaut" unicode="&#x150;" horiz-adv-x="819" d="M239 759 L359 759 L433 905 L280 905 L239 759 Z M433 759 L553 759 L628 905 L474 905 L433 759 Z M410 149 C311 149 245 224 245 354 L245 362 C245 492 308 565 409 565 C510 565 574 490 574 363 L574 355 C574 227 511 149 410 149 L410 149 Z M406 -12 C637 -12 788 138 788 358 L788 366 C788 588 627 725 409 725 C195 725 31 579 31 361 L31 353 C31 138 175 -12 406 -12 L406 -12 Z " />
<glyph glyph-name="ohungarumlaut" unicode="&#x151;" horiz-adv-x="622" d="M157 583 L264 583 L341 749 L201 749 L157 583 Z M335 583 L441 583 L518 749 L378 749 L335 583 Z M312 121 C243 121 208 170 208 260 L208 268 C208 356 245 403 312 403 C380 403 415 354 415 266 L415 258 C415 171 379 121 312 121 L312 121 Z M311 -12 C472 -12 597 90 597 260 L597 268 C597 434 473 537 312 537 C150 537 25 431 25 263 L25 255 C25 86 150 -12 311 -12 L311 -12 Z " />
<glyph glyph-name="OE" unicode="&#x152;" horiz-adv-x="979" d="M31 357 L31 349 C31 127 161 0 413 0 L946 0 L946 158 L655 158 L655 288 L871 288 L871 434 L655 434 L655 557 L930 557 L930 715 L413 715 C164 715 31 580 31 357 L31 357 Z M452 557 L452 158 L421 158 C298 158 245 216 245 352 L245 360 C245 493 298 557 420 557 L452 557 Z " />
<glyph glyph-name="oe" unicode="&#x153;" horiz-adv-x="985" d="M311 -12 C390 -12 456 15 501 64 C547 14 614 -12 696 -12 C854 -12 945 55 961 173 L793 173 C786 138 761 111 702 111 C638 111 598 151 593 220 L961 220 L961 267 C961 455 838 537 695 537 C617 537 551 508 505 458 C459 508 393 537 312 537 C150 537 25 431 25 263 L25 255 C25 86 150 -12 311 -12 L311 -12 Z M312 121 C243 121 208 170 208 260 L208 268 C208 356 245 403 312 403 C380 403 415 354 415 266 L415 258 C415 171 379 121 312 121 L312 121 Z M595 321 C604 384 641 419 695 419 C753 419 784 384 787 321 L595 321 Z " />
<glyph glyph-name="Racute" unicode="&#x154;" horiz-adv-x="697" d="M261 759 L396 759 L499 905 L312 905 L261 759 Z M69 0 L273 0 L273 256 L321 256 L466 0 L682 0 L511 296 C586 325 640 382 640 484 L640 488 C640 639 536 715 349 715 L69 715 L69 0 Z M273 389 L273 561 L340 561 C406 561 442 538 442 480 L442 476 C442 418 408 389 339 389 L273 389 Z " />
<glyph glyph-name="racute" unicode="&#x155;" horiz-adv-x="428" d="M165 583 L293 583 L398 749 L218 749 L165 583 Z M53 0 L232 0 L232 248 C232 332 292 366 401 363 L401 530 C320 531 265 497 232 419 L232 523 L53 523 L53 0 Z " />
<glyph glyph-name="Rcommaaccent" unicode="&#x156;" horiz-adv-x="697" d="M351 -232 L450 -47 L292 -28 L250 -205 L351 -232 Z M69 0 L273 0 L273 256 L321 256 L466 0 L682 0 L511 296 C586 325 640 382 640 484 L640 488 C640 639 536 715 349 715 L69 715 L69 0 Z M273 389 L273 561 L340 561 C406 561 442 538 442 480 L442 476 C442 418 408 389 339 389 L273 389 Z " />
<glyph glyph-name="rcommaaccent" unicode="&#x157;" horiz-adv-x="428" d="M131 -232 L230 -47 L72 -28 L30 -205 L131 -232 Z M53 0 L232 0 L232 248 C232 332 292 366 401 363 L401 530 C320 531 265 497 232 419 L232 523 L53 523 L53 0 Z " />
<glyph glyph-name="Rcaron" unicode="&#x158;" horiz-adv-x="697" d="M259 759 L409 759 L523 905 L396 905 L337 856 L279 905 L149 905 L259 759 Z M69 0 L273 0 L273 256 L321 256 L466 0 L682 0 L511 296 C586 325 640 382 640 484 L640 488 C640 639 536 715 349 715 L69 715 L69 0 Z M273 389 L273 561 L340 561 C406 561 442 538 442 480 L442 476 C442 418 408 389 339 389 L273 389 Z " />
<glyph glyph-name="rcaron" unicode="&#x159;" horiz-adv-x="428" d="M168 585 L295 585 L418 748 L296 748 L235 692 L174 748 L49 748 L168 585 Z M53 0 L232 0 L232 248 C232 332 292 366 401 363 L401 530 C320 531 265 497 232 419 L232 523 L53 523 L53 0 Z " />
<glyph glyph-name="Sacute" unicode="&#x15a;" horiz-adv-x="647" d="M331 -12 C515 -12 619 95 619 226 C619 381 526 428 345 448 C256 460 234 478 234 518 C234 554 262 579 317 579 C373 579 402 553 409 502 L599 502 C586 653 489 725 317 725 C146 725 40 631 40 502 C40 358 108 298 310 274 C396 261 423 249 423 205 C423 163 390 134 331 134 C246 134 223 176 218 227 L23 227 C29 72 131 -12 331 -12 L331 -12 Z M245 759 L380 759 L483 905 L296 905 L245 759 Z " />
<glyph glyph-name="sacute" unicode="&#x15b;" horiz-adv-x="515" d="M187 583 L315 583 L420 749 L240 749 L187 583 Z M258 -12 C403 -12 495 44 495 168 C495 280 425 318 280 336 C216 344 192 354 192 379 C192 403 212 420 251 420 C292 420 311 403 318 368 L480 368 C468 493 378 537 249 537 C128 537 25 481 25 365 C25 256 84 215 224 197 C296 187 321 175 321 150 C321 124 301 107 257 107 C206 107 189 128 183 166 L18 166 C22 50 109 -12 258 -12 L258 -12 Z " />
<glyph glyph-name="Scircumflex" unicode="&#x15c;" horiz-adv-x="647" d="M134 759 L261 759 L319 808 L378 759 L508 759 L398 905 L248 905 L134 759 Z M331 -12 C515 -12 619 95 619 226 C619 381 526 428 345 448 C256 460 234 478 234 518 C234 554 262 579 317 579 C373 579 402 553 409 502 L599 502 C586 653 489 725 317 725 C146 725 40 631 40 502 C40 358 108 298 310 274 C396 261 423 249 423 205 C423 163 390 134 331 134 C246 134 223 176 218 227 L23 227 C29 72 131 -12 331 -12 L331 -12 Z " />
<glyph glyph-name="scircumflex" unicode="&#x15d;" horiz-adv-x="515" d="M69 585 L192 585 L252 641 L313 585 L438 585 L320 748 L192 748 L69 585 Z M258 -12 C403 -12 495 44 495 168 C495 280 425 318 280 336 C216 344 192 354 192 379 C192 403 212 420 251 420 C292 420 311 403 318 368 L480 368 C468 493 378 537 249 537 C128 537 25 481 25 365 C25 256 84 215 224 197 C296 187 321 175 321 150 C321 124 301 107 257 107 C206 107 189 128 183 166 L18 166 C22 50 109 -12 258 -12 L258 -12 Z " />
<glyph glyph-name="Scedilla" unicode="&#x15e;" horiz-adv-x="647" d="M305 -226 C378 -226 426 -191 426 -131 C426 -66 373 -39 315 -45 L337 -12 C517 -9 619 96 619 226 C619 381 526 428 345 448 C256 460 234 478 234 518 C234 554 262 579 317 579 C373 579 402 553 409 502 L599 502 C586 653 489 725 317 725 C146 725 40 631 40 502 C40 358 108 298 310 274 C396 261 423 249 423 205 C423 163 390 134 331 134 C246 134 223 176 218 227 L23 227 C28 89 109 7 268 -9 L226 -73 L265 -111 C271 -106 281 -100 297 -100 C318 -100 330 -113 330 -131 C330 -148 318 -161 298 -161 C276 -161 266 -148 262 -133 L178 -133 C187 -193 233 -226 305 -226 L305 -226 Z " />
<glyph glyph-name="scedilla" unicode="&#x15f;" horiz-adv-x="515" d="M240 -226 C313 -226 361 -191 361 -131 C361 -66 308 -39 250 -45 L273 -12 C409 -8 495 48 495 168 C495 280 425 318 280 336 C216 344 192 354 192 379 C192 403 212 420 251 420 C292 420 311 403 318 368 L480 368 C468 493 378 537 249 537 C128 537 25 481 25 365 C25 256 84 215 224 197 C296 187 321 175 321 150 C321 124 301 107 257 107 C206 107 189 128 183 166 L18 166 C21 65 87 5 203 -9 L161 -73 L200 -111 C206 -106 216 -100 232 -100 C253 -100 265 -113 265 -131 C265 -148 253 -161 233 -161 C211 -161 201 -148 197 -133 L113 -133 C122 -193 168 -226 240 -226 L240 -226 Z " />
<glyph glyph-name="Scaron" unicode="&#x160;" horiz-adv-x="647" d="M243 759 L393 759 L507 905 L380 905 L321 856 L263 905 L133 905 L243 759 Z M331 -12 C515 -12 619 95 619 226 C619 381 526 428 345 448 C256 460 234 478 234 518 C234 554 262 579 317 579 C373 579 402 553 409 502 L599 502 C586 653 489 725 317 725 C146 725 40 631 40 502 C40 358 108 298 310 274 C396 261 423 249 423 205 C423 163 390 134 331 134 C246 134 223 176 218 227 L23 227 C29 72 131 -12 331 -12 L331 -12 Z " />
<glyph glyph-name="scaron" unicode="&#x161;" horiz-adv-x="515" d="M185 585 L312 585 L435 748 L313 748 L252 692 L191 748 L66 748 L185 585 Z M258 -12 C403 -12 495 44 495 168 C495 280 425 318 280 336 C216 344 192 354 192 379 C192 403 212 420 251 420 C292 420 311 403 318 368 L480 368 C468 493 378 537 249 537 C128 537 25 481 25 365 C25 256 84 215 224 197 C296 187 321 175 321 150 C321 124 301 107 257 107 C206 107 189 128 183 166 L18 166 C22 50 109 -12 258 -12 L258 -12 Z " />
<glyph glyph-name="Tcommaaccent" unicode="&#x162;" horiz-adv-x="618" d="M293 -232 L392 -47 L234 -28 L192 -205 L293 -232 Z M206 0 L412 0 L412 557 L597 557 L597 715 L21 715 L21 557 L206 557 L206 0 Z " />
<glyph glyph-name="tcommaaccent" unicode="&#x163;" horiz-adv-x="389" d="M195 -232 L294 -47 L136 -28 L94 -205 L195 -232 Z M261 -12 C303 -12 337 -3 360 3 L360 139 C344 133 329 130 309 130 C275 130 256 147 256 185 L256 401 L359 401 L359 523 L256 523 L256 632 L77 632 L77 523 L14 523 L14 401 L77 401 L77 168 C77 45 143 -12 261 -12 L261 -12 Z " />
<glyph glyph-name="Tcaron" unicode="&#x164;" horiz-adv-x="618" d="M230 759 L380 759 L494 905 L367 905 L308 856 L250 905 L120 905 L230 759 Z M206 0 L412 0 L412 557 L597 557 L597 715 L21 715 L21 557 L206 557 L206 0 Z " />
<glyph glyph-name="tcaron" unicode="&#x165;" horiz-adv-x="389" d="M301 579 L394 579 L443 753 L310 753 L301 579 Z M261 -12 C303 -12 337 -3 360 3 L360 139 C344 133 329 130 309 130 C275 130 256 147 256 185 L256 401 L359 401 L359 523 L256 523 L256 632 L77 632 L77 523 L14 523 L14 401 L77 401 L77 168 C77 45 143 -12 261 -12 L261 -12 Z " />
<glyph glyph-name="Tbar" unicode="&#x166;" horiz-adv-x="618" d="M80 279 L206 279 L206 0 L412 0 L412 279 L538 279 L538 407 L412 407 L412 557 L597 557 L597 715 L21 715 L21 557 L206 557 L206 407 L80 407 L80 279 Z " />
<glyph glyph-name="tbar" unicode="&#x167;" horiz-adv-x="389" d="M14 233 L77 233 L77 168 C77 45 143 -12 261 -12 C303 -12 337 -3 360 3 L360 139 C344 133 329 130 309 130 C275 130 256 147 256 185 L256 233 L359 233 L359 332 L256 332 L256 401 L359 401 L359 523 L256 523 L256 632 L77 632 L77 523 L14 523 L14 401 L77 401 L77 332 L14 332 L14 233 Z " />
<glyph glyph-name="Utilde" unicode="&#x168;" horiz-adv-x="764" d="M381 -12 C578 -12 700 85 700 293 L700 715 L493 715 L493 302 C493 195 466 149 381 149 C294 149 269 198 269 299 L269 715 L64 715 L64 290 C64 90 179 -12 381 -12 L381 -12 Z M445 758 C505 758 561 806 568 911 L467 911 C463 892 453 879 435 879 C402 879 368 912 314 912 C252 912 199 864 192 759 L294 759 C297 778 309 792 325 792 C356 792 388 758 445 758 L445 758 Z " />
<glyph glyph-name="utilde" unicode="&#x169;" horiz-adv-x="623" d="M225 -12 C312 -12 363 27 391 81 L391 0 L570 0 L570 523 L391 523 L391 222 C391 155 356 123 302 123 C251 123 228 152 228 211 L228 523 L49 523 L49 182 C49 50 124 -12 225 -12 L225 -12 Z M374 587 C434 587 484 638 492 742 L395 742 C391 723 381 710 363 710 C330 710 298 744 244 744 C182 744 136 693 129 588 L226 588 C229 607 241 620 257 620 C288 620 318 587 374 587 L374 587 Z " />
<glyph glyph-name="Umacron" unicode="&#x16a;" horiz-adv-x="764" d="M381 -12 C578 -12 700 85 700 293 L700 715 L493 715 L493 302 C493 195 466 149 381 149 C294 149 269 198 269 299 L269 715 L64 715 L64 290 C64 90 179 -12 381 -12 L381 -12 Z M219 771 L541 771 L541 878 L219 878 L219 771 Z " />
<glyph glyph-name="umacron" unicode="&#x16b;" horiz-adv-x="623" d="M225 -12 C312 -12 363 27 391 81 L391 0 L570 0 L570 523 L391 523 L391 222 C391 155 356 123 302 123 C251 123 228 152 228 211 L228 523 L49 523 L49 182 C49 50 124 -12 225 -12 L225 -12 Z M156 612 L463 612 L463 712 L156 712 L156 612 Z " />
<glyph glyph-name="Ubreve" unicode="&#x16c;" horiz-adv-x="764" d="M381 -12 C578 -12 700 85 700 293 L700 715 L493 715 L493 302 C493 195 466 149 381 149 C294 149 269 198 269 299 L269 715 L64 715 L64 290 C64 90 179 -12 381 -12 L381 -12 Z M379 752 C474 752 538 810 546 905 L431 905 C427 877 408 859 379 859 C350 859 333 877 330 905 L214 905 C220 810 281 752 379 752 L379 752 Z " />
<glyph glyph-name="ubreve" unicode="&#x16d;" horiz-adv-x="623" d="M225 -12 C312 -12 363 27 391 81 L391 0 L570 0 L570 523 L391 523 L391 222 C391 155 356 123 302 123 C251 123 228 152 228 211 L228 523 L49 523 L49 182 C49 50 124 -12 225 -12 L225 -12 Z M309 587 C402 587 468 644 474 745 L363 745 C360 716 341 697 309 697 C277 697 260 715 257 745 L146 745 C151 644 214 587 309 587 L309 587 Z " />
<glyph glyph-name="Uring" unicode="&#x16e;" horiz-adv-x="764" d="M381 -12 C578 -12 700 85 700 293 L700 715 L493 715 L493 302 C493 195 466 149 381 149 C294 149 269 198 269 299 L269 715 L64 715 L64 290 C64 90 179 -12 381 -12 L381 -12 Z M380 790 C352 790 334 811 334 840 C334 870 352 891 380 891 C407 891 426 870 426 840 C426 811 407 790 380 790 L380 790 Z M380 724 C446 724 500 777 500 840 C500 904 446 956 380 956 C314 956 260 904 260 840 C260 777 314 724 380 724 L380 724 Z " />
<glyph glyph-name="uring" unicode="&#x16f;" horiz-adv-x="623" d="M309 619 C282 619 263 640 263 669 C263 698 282 719 309 719 C336 719 355 698 355 669 C355 640 336 619 309 619 L309 619 Z M309 555 C374 555 427 606 427 669 C427 732 374 784 309 784 C244 784 191 732 191 669 C191 606 244 555 309 555 L309 555 Z M225 -12 C312 -12 363 27 391 81 L391 0 L570 0 L570 523 L391 523 L391 222 C391 155 356 123 302 123 C251 123 228 152 228 211 L228 523 L49 523 L49 182 C49 50 124 -12 225 -12 L225 -12 Z " />
<glyph glyph-name="Uhungarumlaut" unicode="&#x170;" horiz-adv-x="764" d="M211 759 L331 759 L405 905 L252 905 L211 759 Z M405 759 L525 759 L600 905 L446 905 L405 759 Z M381 -12 C578 -12 700 85 700 293 L700 715 L493 715 L493 302 C493 195 466 149 381 149 C294 149 269 198 269 299 L269 715 L64 715 L64 290 C64 90 179 -12 381 -12 L381 -12 Z " />
<glyph glyph-name="uhungarumlaut" unicode="&#x171;" horiz-adv-x="623" d="M225 -12 C312 -12 363 27 391 81 L391 0 L570 0 L570 523 L391 523 L391 222 C391 155 356 123 302 123 C251 123 228 152 228 211 L228 523 L49 523 L49 182 C49 50 124 -12 225 -12 L225 -12 Z M156 583 L263 583 L340 749 L200 749 L156 583 Z M334 583 L440 583 L517 749 L377 749 L334 583 Z " />
<glyph glyph-name="Uogonek" unicode="&#x172;" horiz-adv-x="764" d="M420 -182 C465 -182 496 -174 514 -166 L514 -81 C505 -84 496 -86 484 -86 C465 -86 453 -77 453 -59 C453 -22 497 -5 546 17 C642 61 700 150 700 293 L700 715 L493 715 L493 302 C493 195 466 149 381 149 C294 149 269 198 269 299 L269 715 L64 715 L64 290 C64 95 172 -6 364 -12 C331 -32 300 -61 300 -102 C300 -151 346 -182 420 -182 L420 -182 Z " />
<glyph glyph-name="uogonek" unicode="&#x173;" horiz-adv-x="623" d="M485 -182 C529 -182 557 -174 575 -166 L575 -86 C566 -89 557 -91 545 -91 C527 -91 515 -82 515 -63 C515 -41 529 -19 570 12 L570 523 L391 523 L391 222 C391 155 356 123 302 123 C251 123 228 152 228 211 L228 523 L49 523 L49 182 C49 50 124 -12 225 -12 C312 -12 363 27 391 81 L391 0 L455 0 C412 -20 369 -50 369 -101 C369 -151 414 -182 485 -182 L485 -182 Z " />
<glyph glyph-name="Wcircumflex" unicode="&#x174;" horiz-adv-x="996" d="M312 759 L439 759 L497 808 L556 759 L686 759 L576 905 L426 905 L312 759 Z M180 0 L380 0 L491 454 L601 0 L815 0 L982 715 L792 715 L695 265 L591 715 L409 715 L313 269 L221 715 L14 715 L180 0 Z " />
<glyph glyph-name="wcircumflex" unicode="&#x175;" horiz-adv-x="845" d="M237 585 L360 585 L420 641 L481 585 L606 585 L488 748 L360 748 L237 585 Z M167 0 L341 0 L422 292 L500 0 L671 0 L837 523 L667 523 L582 210 L504 523 L360 523 L272 210 L196 523 L9 523 L167 0 Z " />
<glyph glyph-name="Ycircumflex" unicode="&#x176;" horiz-adv-x="677" d="M241 0 L447 0 L447 306 L669 715 L473 715 L352 474 L231 715 L8 715 L241 306 L241 0 Z M158 759 L285 759 L343 808 L402 759 L532 759 L422 905 L272 905 L158 759 Z " />
<glyph glyph-name="ycircumflex" unicode="&#x177;" horiz-adv-x="589" d="M130 -175 L301 -175 L581 523 L410 523 L310 244 L202 523 L8 523 L217 53 L130 -175 Z M117 585 L240 585 L300 641 L361 585 L486 585 L368 748 L240 748 L117 585 Z " />
<glyph glyph-name="Ydieresis" unicode="&#x178;" horiz-adv-x="677" d="M241 0 L447 0 L447 306 L669 715 L473 715 L352 474 L231 715 L8 715 L241 306 L241 0 Z M233 758 C281 758 319 795 319 841 C319 888 281 925 233 925 C186 925 148 888 148 841 C148 795 186 758 233 758 L233 758 Z M456 758 C504 758 542 795 542 841 C542 888 504 925 456 925 C408 925 371 888 371 841 C371 795 408 758 456 758 L456 758 Z " />
<glyph glyph-name="Zacute" unicode="&#x179;" horiz-adv-x="627" d="M245 759 L380 759 L483 905 L296 905 L245 759 Z M13 0 L593 0 L593 158 L308 158 L608 693 L608 715 L52 715 L52 558 L317 558 L13 23 L13 0 Z " />
<glyph glyph-name="zacute" unicode="&#x17a;" horiz-adv-x="508" d="M191 583 L319 583 L424 749 L244 749 L191 583 Z M10 0 L483 0 L483 135 L260 135 L495 504 L495 523 L34 523 L34 388 L239 388 L10 18 L10 0 Z " />
<glyph glyph-name="Zdotaccent" unicode="&#x17b;" horiz-adv-x="627" d="M13 0 L593 0 L593 158 L308 158 L608 693 L608 715 L52 715 L52 558 L317 558 L13 23 L13 0 Z M322 757 C376 757 417 795 417 847 C417 898 376 936 322 936 C268 936 227 898 227 847 C227 795 268 757 322 757 L322 757 Z " />
<glyph glyph-name="zdotaccent" unicode="&#x17c;" horiz-adv-x="508" d="M10 0 L483 0 L483 135 L260 135 L495 504 L495 523 L34 523 L34 388 L239 388 L10 18 L10 0 Z M261 579 C315 579 356 617 356 669 C356 720 315 758 261 758 C206 758 165 720 165 669 C165 617 206 579 261 579 L261 579 Z " />
<glyph glyph-name="Zcaron" unicode="&#x17d;" horiz-adv-x="627" d="M243 759 L393 759 L507 905 L380 905 L321 856 L263 905 L133 905 L243 759 Z M13 0 L593 0 L593 158 L308 158 L608 693 L608 715 L52 715 L52 558 L317 558 L13 23 L13 0 Z " />
<glyph glyph-name="zcaron" unicode="&#x17e;" horiz-adv-x="508" d="M194 585 L321 585 L444 748 L322 748 L261 692 L200 748 L75 748 L194 585 Z M10 0 L483 0 L483 135 L260 135 L495 504 L495 523 L34 523 L34 388 L239 388 L10 18 L10 0 Z " />
<glyph glyph-name="florin" unicode="&#x192;" horiz-adv-x="447" d="M23 293 L96 293 L29 -182 L207 -182 L275 293 L405 293 L405 414 L292 414 L308 524 C314 565 337 587 379 587 C401 587 416 584 430 580 L430 714 C405 721 385 725 352 725 C232 725 150 672 131 539 L113 414 L23 414 L23 293 Z " />
<glyph glyph-name="Aringacute" unicode="&#x1fa;" horiz-adv-x="747" d="M13 0 L204 0 L242 133 L479 133 L517 0 L734 0 L507 715 L242 715 L13 0 Z M375 741 C441 741 495 794 495 857 C495 921 441 973 375 973 C309 973 255 921 255 857 C255 794 309 741 375 741 L375 741 Z M306 991 L441 991 L544 1137 L357 1137 L306 991 Z M361 549 L439 274 L282 274 L361 549 Z M375 807 C347 807 329 828 329 857 C329 887 347 908 375 908 C402 908 421 887 421 857 C421 828 402 807 375 807 L375 807 Z " />
<glyph glyph-name="aringacute" unicode="&#x1fb;" horiz-adv-x="578" d="M200 -12 C284 -12 330 23 355 61 L355 0 L529 0 L529 339 C529 478 437 537 293 537 C150 537 51 475 43 349 L211 349 C215 382 233 411 282 411 C339 411 351 378 351 328 L351 316 L301 316 C127 316 23 268 23 145 C23 34 106 -12 200 -12 L200 -12 Z M262 109 C220 109 200 128 200 158 C200 201 232 215 304 215 L351 215 L351 183 C351 138 313 109 262 109 L262 109 Z M292 636 C265 636 246 657 246 686 C246 715 265 736 292 736 C319 736 338 715 338 686 C338 657 319 636 292 636 L292 636 Z M292 572 C357 572 410 623 410 686 C410 749 357 801 292 801 C227 801 174 749 174 686 C174 623 227 572 292 572 L292 572 Z M229 829 L364 829 L467 975 L280 975 L229 829 Z " />
<glyph glyph-name="AEacute" unicode="&#x1fc;" horiz-adv-x="1002" d="M11 0 L206 0 L269 146 L466 146 L466 0 L970 0 L970 158 L671 158 L671 288 L894 288 L894 434 L671 434 L671 557 L954 557 L954 715 L332 715 L11 0 Z M537 759 L672 759 L775 905 L588 905 L537 759 Z M446 557 L466 557 L466 284 L328 284 L446 557 Z " />
<glyph glyph-name="aeacute" unicode="&#x1fd;" horiz-adv-x="908" d="M627 -12 C779 -12 868 55 884 173 L717 173 C710 138 686 111 628 111 C565 111 529 150 524 221 L884 221 L884 267 C884 456 763 537 622 537 C553 537 497 515 455 475 C422 517 366 537 286 537 C151 537 51 475 43 349 L211 349 C216 385 234 411 283 411 C339 411 353 379 353 328 L353 319 L300 319 C126 319 23 268 23 145 C23 34 111 -12 217 -12 C319 -12 381 22 424 79 C465 19 533 -12 627 -12 L627 -12 Z M401 583 L529 583 L634 749 L454 749 L401 583 Z M525 319 C532 383 569 419 622 419 C679 419 707 384 711 319 L525 319 Z M263 109 C221 109 200 128 200 162 C200 206 235 218 303 218 L353 218 L353 183 C353 138 318 109 263 109 L263 109 Z " />
<glyph glyph-name="Oslashacute" unicode="&#x1fe;" horiz-adv-x="819" d="M91 -32 L173 55 C234 12 313 -12 406 -12 C637 -12 788 138 788 358 L788 366 C788 466 755 549 699 609 L768 682 L709 740 L636 663 C574 703 496 725 409 725 C195 725 31 579 31 361 L31 353 C31 257 60 173 112 111 L32 26 L91 -32 Z M410 149 C366 149 329 162 300 189 L560 462 C570 434 576 401 576 363 L576 355 C576 227 512 149 410 149 L410 149 Z M243 354 L243 362 C243 492 307 565 409 565 C449 565 484 554 511 532 L256 262 C247 288 243 319 243 354 L243 354 Z M333 759 L468 759 L571 905 L384 905 L333 759 Z " />
<glyph glyph-name="oslashacute" unicode="&#x1ff;" horiz-adv-x="622" d="M73 -39 L141 33 C188 4 246 -12 311 -12 C472 -12 597 90 597 260 L597 268 C597 342 572 403 530 449 L592 515 L540 563 L475 494 C429 522 373 537 312 537 C150 537 25 431 25 263 L25 255 C25 182 48 123 87 79 L21 9 L73 -39 Z M241 583 L369 583 L474 749 L294 749 L241 583 Z M312 120 C284 120 261 128 244 143 L411 321 C415 305 417 286 417 266 L417 258 C417 170 381 120 312 120 L312 120 Z M206 260 L206 268 C206 357 244 404 312 404 C337 404 357 398 373 385 L210 211 C207 225 206 242 206 260 L206 260 Z " />
<glyph glyph-name="Scommaaccent" unicode="&#x218;" horiz-adv-x="651" d="M306 -232 L405 -47 L247 -28 L205 -205 L306 -232 Z M331 -12 C515 -12 619 95 619 226 C619 381 526 428 345 448 C256 460 234 478 234 518 C234 554 262 579 317 579 C373 579 402 553 409 502 L599 502 C586 653 489 725 317 725 C146 725 40 631 40 502 C40 358 108 298 310 274 C396 261 423 249 423 205 C423 163 390 134 331 134 C246 134 223 176 218 227 L23 227 C29 72 131 -12 331 -12 L331 -12 Z " />
<glyph glyph-name="scommaaccent" unicode="&#x219;" horiz-adv-x="515" d="M239 -232 L338 -47 L180 -28 L138 -205 L239 -232 Z M257 -12 C402 -12 494 44 494 168 C494 280 424 318 279 336 C215 344 191 354 191 379 C191 403 211 420 250 420 C291 420 310 403 317 368 L479 368 C467 493 377 537 248 537 C127 537 24 481 24 365 C24 256 83 215 223 197 C295 187 320 175 320 150 C320 124 300 107 256 107 C205 107 188 128 182 166 L17 166 C21 50 108 -12 257 -12 L257 -12 Z " />
<glyph glyph-name="uni0237" unicode="&#x237;" horiz-adv-x="295" d="M-6 -184 C183 -184 236 -109 236 4 L236 523 L58 523 L58 8 C58 -33 38 -51 -6 -54 L-6 -184 Z " />
<glyph glyph-name="circumflex" unicode="&#x2c6;" horiz-adv-x="400" d="M15 585 L138 585 L198 641 L259 585 L384 585 L266 748 L138 748 L15 585 Z " />
<glyph glyph-name="caron" unicode="&#x2c7;" horiz-adv-x="400" d="M134 585 L261 585 L384 748 L262 748 L201 692 L140 748 L15 748 L134 585 Z " />
<glyph glyph-name="breve" unicode="&#x2d8;" horiz-adv-x="400" d="M199 587 C292 587 358 644 364 745 L253 745 C250 716 231 697 199 697 C167 697 150 715 147 745 L36 745 C41 644 104 587 199 587 L199 587 Z " />
<glyph glyph-name="dotaccent" unicode="&#x2d9;" horiz-adv-x="400" d="M200 579 C254 579 295 617 295 669 C295 720 254 758 200 758 C145 758 104 720 104 669 C104 617 145 579 200 579 L200 579 Z " />
<glyph glyph-name="ring" unicode="&#x2da;" horiz-adv-x="400" d="M200 642 C173 642 154 663 154 692 C154 721 173 742 200 742 C227 742 246 721 246 692 C246 663 227 642 200 642 L200 642 Z M200 578 C265 578 318 629 318 692 C318 755 265 807 200 807 C135 807 82 755 82 692 C82 629 135 578 200 578 L200 578 Z " />
<glyph glyph-name="ogonek" unicode="&#x2db;" horiz-adv-x="400" d="M199 -182 C238 -182 270 -174 288 -166 L288 -86 C280 -89 270 -91 258 -91 C240 -91 228 -82 228 -63 C228 -41 242 -22 270 0 L168 0 C125 -20 82 -53 82 -103 C82 -154 134 -182 199 -182 L199 -182 Z " />
<glyph glyph-name="tilde" unicode="&#x2dc;" horiz-adv-x="400" d="M264 587 C324 587 374 638 382 742 L285 742 C281 723 271 710 253 710 C220 710 188 744 134 744 C72 744 26 693 19 588 L116 588 C119 607 131 620 147 620 C178 620 208 587 264 587 L264 587 Z " />
<glyph glyph-name="hungarumlaut" unicode="&#x2dd;" horiz-adv-x="400" d="M54 583 L161 583 L238 749 L98 749 L54 583 Z M232 583 L338 583 L415 749 L275 749 L232 583 Z " />
<glyph glyph-name="Wgrave" unicode="&#x1e80;" horiz-adv-x="996" d="M442 759 L577 759 L528 905 L342 905 L442 759 Z M180 0 L380 0 L491 454 L601 0 L815 0 L982 715 L792 715 L695 265 L591 715 L409 715 L313 269 L221 715 L14 715 L180 0 Z " />
<glyph glyph-name="wgrave" unicode="&#x1e81;" horiz-adv-x="845" d="M167 0 L341 0 L422 292 L500 0 L671 0 L837 523 L667 523 L582 210 L504 523 L360 523 L272 210 L196 523 L9 523 L167 0 Z M372 583 L500 583 L447 749 L267 749 L372 583 Z " />
<glyph glyph-name="Wacute" unicode="&#x1e82;" horiz-adv-x="996" d="M430 759 L565 759 L668 905 L481 905 L430 759 Z M180 0 L380 0 L491 454 L601 0 L815 0 L982 715 L792 715 L695 265 L591 715 L409 715 L313 269 L221 715 L14 715 L180 0 Z " />
<glyph glyph-name="wacute" unicode="&#x1e83;" horiz-adv-x="845" d="M368 583 L496 583 L601 749 L421 749 L368 583 Z M167 0 L341 0 L422 292 L500 0 L671 0 L837 523 L667 523 L582 210 L504 523 L360 523 L272 210 L196 523 L9 523 L167 0 Z " />
<glyph glyph-name="Wdieresis" unicode="&#x1e84;" horiz-adv-x="996" d="M389 758 C437 758 475 795 475 841 C475 888 437 925 389 925 C342 925 304 888 304 841 C304 795 342 758 389 758 L389 758 Z M612 758 C660 758 698 795 698 841 C698 888 660 925 612 925 C564 925 527 888 527 841 C527 795 564 758 612 758 L612 758 Z M180 0 L380 0 L491 454 L601 0 L815 0 L982 715 L792 715 L695 265 L591 715 L409 715 L313 269 L221 715 L14 715 L180 0 Z " />
<glyph glyph-name="wdieresis" unicode="&#x1e85;" horiz-adv-x="845" d="M324 580 C372 580 410 617 410 663 C410 709 372 747 324 747 C277 747 239 709 239 663 C239 617 277 580 324 580 L324 580 Z M537 580 C585 580 623 617 623 663 C623 709 585 747 537 747 C489 747 452 709 452 663 C452 617 489 580 537 580 L537 580 Z M167 0 L341 0 L422 292 L500 0 L671 0 L837 523 L667 523 L582 210 L504 523 L360 523 L272 210 L196 523 L9 523 L167 0 Z " />
<glyph glyph-name="Ygrave" unicode="&#x1ef2;" horiz-adv-x="677" d="M241 0 L447 0 L447 306 L669 715 L473 715 L352 474 L231 715 L8 715 L241 306 L241 0 Z M288 759 L423 759 L374 905 L188 905 L288 759 Z " />
<glyph glyph-name="ygrave" unicode="&#x1ef3;" horiz-adv-x="589" d="M130 -175 L301 -175 L581 523 L410 523 L310 244 L202 523 L8 523 L217 53 L130 -175 Z M245 583 L373 583 L320 749 L140 749 L245 583 Z " />
<glyph glyph-name="uni2009" unicode="&#x2009;" horiz-adv-x="87" d="" />
<glyph glyph-name="endash" unicode="&#x2013;" horiz-adv-x="541" d="M46 240 L495 240 L495 345 L46 345 L46 240 Z " />
<glyph glyph-name="emdash" unicode="&#x2014;" horiz-adv-x="946" d="M46 240 L901 240 L901 345 L46 345 L46 240 Z " />
<glyph glyph-name="quoteleft" unicode="&#x2018;" horiz-adv-x="310" d="M188 428 L268 689 L167 728 L30 481 L188 428 Z " />
<glyph glyph-name="quoteright" unicode="&#x2019;" horiz-adv-x="310" d="M143 428 L280 675 L122 728 L42 467 L143 428 Z " />
<glyph glyph-name="quotesinglbase" unicode="&#x201a;" horiz-adv-x="309" d="M140 -106 L276 141 L119 194 L39 -67 L140 -106 Z " />
<glyph glyph-name="quotedblleft" unicode="&#x201c;" horiz-adv-x="536" d="M188 428 L268 689 L167 728 L30 481 L188 428 Z M415 428 L495 689 L394 728 L257 481 L415 428 Z " />
<glyph glyph-name="quotedblright" unicode="&#x201d;" horiz-adv-x="536" d="M143 428 L280 675 L122 728 L42 467 L143 428 Z M369 428 L507 675 L349 728 L269 467 L369 428 Z " />
<glyph glyph-name="quotedblbase" unicode="&#x201e;" horiz-adv-x="536" d="M140 -106 L276 141 L119 194 L39 -67 L140 -106 Z M366 -106 L504 141 L345 194 L266 -67 L366 -106 Z " />
<glyph glyph-name="dagger" unicode="&#x2020;" horiz-adv-x="405" d="M130 213 L275 213 L275 472 L382 472 L382 598 L275 598 L275 715 L130 715 L130 598 L23 598 L23 472 L130 472 L130 213 Z " />
<glyph glyph-name="daggerdbl" unicode="&#x2021;" horiz-adv-x="405" d="M130 427 L23 427 L23 313 L130 313 L130 213 L275 213 L275 313 L382 313 L382 427 L275 427 L275 501 L382 501 L382 615 L275 615 L275 715 L130 715 L130 615 L23 615 L23 501 L130 501 L130 427 Z " />
<glyph glyph-name="bullet" unicode="&#x2022;" horiz-adv-x="372" d="M186 156 C271 156 332 222 332 303 C332 384 271 449 186 449 C103 449 39 384 39 303 C39 222 103 156 186 156 L186 156 Z " />
<glyph glyph-name="ellipsis" unicode="&#x2026;" horiz-adv-x="893" d="M148 -11 C208 -11 253 34 253 90 C253 146 208 191 148 191 C89 191 46 146 46 90 C46 34 89 -11 148 -11 L148 -11 Z M445 -11 C505 -11 550 34 550 90 C550 146 505 191 445 191 C386 191 343 146 343 90 C343 34 386 -11 445 -11 L445 -11 Z M742 -11 C802 -11 847 34 847 90 C847 146 802 191 742 191 C683 191 640 146 640 90 C640 34 683 -11 742 -11 L742 -11 Z " />
<glyph glyph-name="perthousand" unicode="&#x2030;" horiz-adv-x="1222" d="M213 472 C177 472 156 500 156 548 C156 593 177 621 213 621 C249 621 269 593 269 547 C269 501 249 472 213 472 L213 472 Z M212 368 C327 368 400 447 400 550 C400 651 319 723 213 723 C106 723 25 647 25 547 C25 445 95 368 212 368 L212 368 Z M115 0 L213 0 L709 715 L611 715 L115 0 Z M606 92 C570 92 549 120 549 168 C549 213 570 241 606 241 C642 241 662 213 662 168 C662 121 642 92 606 92 L606 92 Z M605 -12 C720 -12 793 67 793 170 C793 271 712 343 606 343 C499 343 418 267 418 167 C418 65 488 -12 605 -12 L605 -12 Z M1010 92 C975 92 953 120 953 168 C953 213 975 241 1010 241 C1047 241 1067 213 1067 168 C1067 121 1047 92 1010 92 L1010 92 Z M1010 -12 C1124 -12 1198 67 1198 170 C1198 271 1117 343 1010 343 C903 343 822 267 822 167 C822 65 893 -12 1010 -12 L1010 -12 Z " />
<glyph glyph-name="uni2032" unicode="&#x2032;" horiz-adv-x="250" d="M35 440 L161 440 L224 715 L55 715 L35 440 Z " />
<glyph glyph-name="uni2033" unicode="&#x2033;" horiz-adv-x="462" d="M35 440 L161 440 L224 715 L55 715 L35 440 Z M247 440 L374 440 L436 715 L268 715 L247 440 Z " />
<glyph glyph-name="guilsinglleft" unicode="&#x2039;" horiz-adv-x="307" d="M155 70 L277 70 L157 261 L277 452 L155 452 L31 261 L155 70 Z " />
<glyph glyph-name="guilsinglright" unicode="&#x203a;" horiz-adv-x="307" d="M30 70 L151 70 L276 261 L151 452 L30 452 L150 261 L30 70 Z " />
<glyph glyph-name="fraction" unicode="&#x2044;" horiz-adv-x="168" d="M-243 0 L-149 0 L411 715 L317 715 L-243 0 Z " />
<glyph glyph-name="Euro" unicode="&#x20ac;" horiz-adv-x="720" d="M23 381 L81 381 L81 329 L23 329 L23 258 L85 258 C107 100 210 -12 391 -12 C576 -12 672 89 692 262 L504 262 C495 185 463 146 396 146 C329 146 295 187 284 258 L406 258 L418 329 L280 329 L280 381 L427 381 L439 452 L284 452 C296 525 330 571 395 571 C455 571 489 535 498 467 L687 467 C672 637 569 725 397 725 C226 725 111 613 86 452 L23 452 L23 381 Z " />
<glyph glyph-name="trademark" unicode="&#x2122;" horiz-adv-x="760" d="M341 394 L434 394 L434 577 L505 394 L538 394 L610 577 L610 394 L719 394 L719 715 L588 715 L528 557 L469 715 L341 715 L341 394 Z M112 394 L219 394 L219 631 L302 631 L302 715 L29 715 L29 631 L112 631 L112 394 Z " />
<glyph glyph-name="onethird" unicode="&#x2153;" horiz-adv-x="813" d="M621 -7 C731 -7 786 42 786 114 C786 158 755 189 710 196 C753 207 778 234 778 276 C778 342 720 381 622 381 C519 381 467 326 461 252 L577 252 C581 276 597 290 619 290 C642 290 653 278 653 260 C653 238 640 226 608 226 L578 226 L578 152 L608 152 C639 152 653 141 653 119 C653 98 639 85 614 85 C585 85 572 103 569 126 L453 126 C457 49 503 -7 621 -7 L621 -7 Z M105 339 L239 339 L239 715 L125 715 L23 648 L23 541 L105 587 L105 339 Z M58 0 L152 0 L712 715 L618 715 L58 0 Z " />
<glyph glyph-name="twothirds" unicode="&#x2154;" horiz-adv-x="860" d="M669 -7 C779 -7 834 42 834 114 C834 158 803 189 758 196 C801 207 826 234 826 276 C826 342 768 381 670 381 C567 381 515 326 509 252 L625 252 C629 276 645 290 667 290 C690 290 701 278 701 260 C701 238 688 226 656 226 L626 226 L626 152 L656 152 C687 152 701 141 701 119 C701 98 687 85 662 85 C633 85 620 103 617 126 L501 126 C505 49 551 -7 669 -7 L669 -7 Z M8 339 L335 339 L335 434 L222 434 L257 468 C302 509 334 549 334 600 C334 668 284 720 179 720 C79 720 16 669 13 571 L133 571 C137 607 151 623 173 623 C194 623 204 611 204 591 C204 561 178 532 136 489 L8 356 L8 339 Z M121 0 L215 0 L775 715 L681 715 L121 0 Z " />
<glyph glyph-name="oneeighth" unicode="&#x215b;" horiz-adv-x="807" d="M613 -7 C723 -7 784 36 784 109 C784 149 764 183 717 197 C749 210 770 234 770 273 C770 344 705 381 614 381 C528 381 458 342 458 273 C458 233 479 210 511 196 C464 181 442 146 442 105 C442 32 503 -7 613 -7 L613 -7 Z M614 81 C590 81 572 96 572 120 C572 144 590 159 614 159 C638 159 655 143 655 120 C655 97 637 81 614 81 L614 81 Z M614 227 C595 227 577 240 577 261 C577 282 595 296 614 296 C635 296 651 283 651 262 C651 241 635 227 614 227 L614 227 Z M105 339 L239 339 L239 715 L125 715 L23 648 L23 541 L105 587 L105 339 Z M49 0 L143 0 L703 715 L609 715 L49 0 Z " />
<glyph glyph-name="threeeighths" unicode="&#x215c;" horiz-adv-x="847" d="M653 -7 C763 -7 824 36 824 109 C824 149 804 183 757 197 C789 210 810 234 810 273 C810 344 745 381 654 381 C568 381 498 342 498 273 C498 233 519 210 551 196 C504 181 482 146 482 105 C482 32 543 -7 653 -7 L653 -7 Z M654 81 C630 81 612 96 612 120 C612 144 630 159 654 159 C678 159 695 143 695 120 C695 97 677 81 654 81 L654 81 Z M654 227 C635 227 617 240 617 261 C617 282 635 296 654 296 C675 296 691 283 691 262 C691 241 675 227 654 227 L654 227 Z M101 0 L195 0 L755 715 L661 715 L101 0 Z M189 332 C299 332 354 381 354 453 C354 498 323 528 278 535 C321 547 346 574 346 616 C346 682 288 720 190 720 C87 720 35 666 29 591 L145 591 C149 616 165 629 187 629 C210 629 221 617 221 600 C221 578 208 566 176 566 L146 566 L146 492 L176 492 C207 492 221 480 221 458 C221 437 207 424 182 424 C153 424 140 442 137 466 L21 466 C25 388 71 332 189 332 L189 332 Z " />
<glyph glyph-name="fiveeighths" unicode="&#x215d;" horiz-adv-x="833" d="M639 -7 C749 -7 810 36 810 109 C810 149 790 183 743 197 C775 210 796 234 796 273 C796 344 731 381 640 381 C554 381 484 342 484 273 C484 233 505 210 537 196 C490 181 468 146 468 105 C468 32 529 -7 639 -7 L639 -7 Z M640 81 C616 81 598 96 598 120 C598 144 616 159 640 159 C664 159 681 143 681 120 C681 97 663 81 640 81 L640 81 Z M640 227 C621 227 603 240 603 261 C603 282 621 296 640 296 C661 296 677 283 677 262 C677 241 661 227 640 227 L640 227 Z M182 332 C288 332 348 386 348 472 C348 549 301 590 231 590 C175 590 149 566 133 542 L136 622 L326 622 L326 715 L45 715 L34 486 L136 486 C142 499 155 510 177 510 C202 510 215 495 215 470 C215 445 202 429 180 429 C154 429 145 441 142 458 L22 458 C24 387 72 332 182 332 L182 332 Z M86 0 L180 0 L740 715 L646 715 L86 0 Z " />
<glyph glyph-name="seveneighths" unicode="&#x215e;" horiz-adv-x="802" d="M608 -7 C718 -7 779 36 779 109 C779 149 759 183 712 197 C744 210 765 234 765 273 C765 344 700 381 609 381 C523 381 453 342 453 273 C453 233 474 210 506 196 C459 181 437 146 437 105 C437 32 498 -7 608 -7 L608 -7 Z M609 81 C585 81 567 96 567 120 C567 144 585 159 609 159 C633 159 650 143 650 120 C650 97 632 81 609 81 L609 81 Z M609 227 C590 227 572 240 572 261 C572 282 590 296 609 296 C630 296 646 283 646 262 C646 241 630 227 609 227 L609 227 Z M68 339 L200 339 L336 702 L336 715 L22 715 L22 611 L170 611 L68 339 Z M36 0 L130 0 L690 715 L596 715 L36 0 Z " />
<glyph glyph-name="minus" unicode="&#x2212;" horiz-adv-x="572" d="M37 271 L535 271 L535 409 L37 409 L37 271 Z " />
<glyph glyph-name="approxequal" unicode="&#x2248;" horiz-adv-x="579" d="M37 121 L141 121 C145 149 161 165 186 165 C235 165 320 125 402 125 C472 125 536 183 541 303 L438 303 C434 274 418 259 393 259 C344 259 258 299 178 299 C108 299 45 247 37 121 L37 121 Z M37 342 L141 342 C145 369 161 386 186 386 C235 386 320 346 402 346 C472 346 536 403 541 523 L438 523 C434 495 418 479 393 479 C344 479 258 519 178 519 C108 519 45 468 37 342 L37 342 Z " />
<glyph glyph-name="notequal" unicode="&#x2260;" horiz-adv-x="557" d="M39 363 L235 363 L207 289 L39 289 L39 167 L160 167 L123 71 L238 71 L275 167 L518 167 L518 289 L322 289 L351 363 L518 363 L518 486 L398 486 L436 582 L320 582 L283 486 L39 486 L39 363 Z " />
<glyph glyph-name="lessequal" unicode="&#x2264;" horiz-adv-x="513" d="M463 143 L463 304 L297 386 L463 468 L463 628 L42 402 L42 368 L463 143 Z M42 0 L463 0 L463 118 L42 118 L42 0 Z " />
<glyph glyph-name="greaterequal" unicode="&#x2265;" horiz-adv-x="513" d="M49 143 L471 368 L471 402 L49 628 L49 468 L215 386 L49 304 L49 143 Z M49 0 L471 0 L471 118 L49 118 L49 0 Z " />
<glyph glyph-name="uni24C5" unicode="&#x24c5;" horiz-adv-x="843" d="M279 158 L404 158 L404 290 L445 290 C548 290 603 336 603 421 L603 424 C603 509 554 561 438 561 L279 561 L279 158 Z M404 375 L404 467 L432 467 C466 467 485 454 485 424 L485 421 C485 390 466 375 431 375 L404 375 Z M420 31 C246 31 100 161 100 357 C100 551 241 684 422 684 C601 684 743 552 743 359 C743 163 597 31 420 31 L420 31 Z M420 -20 C636 -20 806 144 806 359 C806 569 640 735 422 735 C207 735 37 568 37 357 C37 143 208 -20 420 -20 L420 -20 Z " />
<glyph glyph-name="f_f" unicode="&#xfb00;" horiz-adv-x="716" d="M80 0 L258 0 L258 401 L410 401 L410 0 L589 0 L589 401 L695 401 L695 523 L589 523 L589 569 C589 603 607 626 648 626 C668 626 684 623 697 619 L697 750 C673 756 648 761 615 761 C492 761 410 699 410 569 L410 523 L258 523 L258 563 C258 596 276 620 316 620 C336 620 351 617 364 613 L364 744 C341 750 317 754 284 754 C160 754 80 693 80 563 L80 523 L14 523 L14 401 L80 401 L80 0 Z " />
<glyph glyph-name="f_i" unicode="&#xfb01;" horiz-adv-x="675" d="M437 0 L616 0 L616 523 L437 523 L437 0 Z M526 573 C582 573 625 612 625 665 C625 718 582 758 526 758 C470 758 428 718 428 665 C428 612 470 573 526 573 L526 573 Z M80 0 L258 0 L258 401 L364 401 L364 523 L258 523 L258 569 C258 603 276 626 317 626 C337 626 351 624 364 620 L364 751 C341 757 317 761 284 761 C161 761 80 699 80 569 L80 523 L14 523 L14 401 L80 401 L80 0 Z " />
<glyph glyph-name="f_l" unicode="&#xfb02;" horiz-adv-x="673" d="M80 0 L258 0 L258 401 L364 401 L364 523 L258 523 L258 569 C258 603 276 626 317 626 C337 626 351 624 364 620 L364 751 C341 757 317 761 284 761 C161 761 80 699 80 569 L80 523 L14 523 L14 401 L80 401 L80 0 Z M437 0 L615 0 L615 753 L437 753 L437 0 Z " />
</font>
</svg>
